<?xml version="1.0" standalone="no"?>
<!DOCTYPE svg PUBLIC "-//W3C//DTD SVG 20010904//EN"
 "http://www.w3.org/TR/2001/REC-SVG-20010904/DTD/svg10.dtd">
<svg version="1.0" xmlns="http://www.w3.org/2000/svg"
 width="923.000000pt" height="1920.000000pt" viewBox="0 0 923.000000 1920.000000"
 preserveAspectRatio="xMidYMid meet">

<g transform="translate(0.000000,1920.000000) scale(0.100000,-0.100000)"
fill="#000000" stroke="none">
<path d="M0 18881 l0 -318 40 -7 c22 -3 40 -11 40 -16 0 -6 18 -10 40 -10 26
0 40 -4 40 -13 0 -9 13 -13 40 -11 22 1 43 -2 46 -7 3 -5 18 -9 34 -9 16 0 33
-6 37 -12 4 -7 17 -18 28 -24 29 -16 25 -36 -10 -46 -16 -5 -99 -9 -182 -9
l-153 -1 0 -38 0 -37 73 -7 c272 -24 302 -29 342 -55 45 -28 170 -47 192 -29
17 14 317 1 472 -20 44 -6 83 -7 97 -2 13 5 411 9 901 9 483 0 1162 1 1508 1
347 1 637 1 645 0 13 -1 1170 6 2520 15 653 5 870 6 1195 6 165 0 455 2 645 4
190 2 411 4 493 5 l147 0 0 70 c0 49 -4 70 -12 70 -7 0 -149 1 -315 1 -330 0
-328 0 -299 57 7 15 11 33 8 41 -3 10 0 12 12 8 9 -4 16 -2 16 3 0 6 -8 10
-17 10 -17 1 -17 2 0 14 12 9 14 16 8 21 -8 4 -6 11 4 21 10 11 13 27 9 58 -6
38 -3 45 21 64 25 20 39 21 168 22 78 0 162 0 187 0 58 0 136 -6 178 -15 l32
-7 0 65 c0 47 -4 66 -14 70 -8 3 -16 2 -18 -4 -6 -17 -79 -24 -89 -8 -5 8 -9
9 -9 4 0 -6 -9 -11 -20 -11 -11 0 -20 4 -20 9 0 4 -6 5 -12 0 -14 -8 -130 -6
-162 4 -13 4 -16 1 -11 -7 6 -10 1 -11 -21 -6 -16 4 -47 10 -68 14 -31 6 -36
9 -25 18 21 16 51 26 44 14 -4 -6 10 -10 37 -9 24 1 79 1 123 1 44 0 122 0
173 0 l92 1 0 53 c0 50 -2 54 -27 61 -16 3 -44 7 -63 7 -19 1 -38 5 -41 9 -4
5 -33 11 -65 13 -33 2 -68 5 -79 6 -14 2 -19 -2 -17 -14 3 -19 -8 -23 -24 -9
-18 17 -100 21 -120 6 -26 -20 -34 -18 -34 6 0 24 -19 21 -34 -7 -6 -10 -15
-22 -21 -26 -6 -5 -4 -8 5 -8 10 0 7 -5 -8 -16 -12 -8 -20 -19 -17 -24 3 -4
-6 -11 -19 -14 -14 -3 -27 -14 -29 -24 -3 -9 -5 11 -6 46 -1 61 -1 62 -30 62
-15 0 -41 5 -58 10 -25 9 -38 6 -85 -18 -51 -27 -62 -29 -145 -26 -49 1 -107
-2 -129 -7 -21 -5 -50 -11 -64 -13 -156 -20 -148 -20 -170 5 -10 13 -19 29
-20 35 0 14 -40 50 -40 37 0 -6 7 -16 15 -23 8 -7 15 -17 15 -22 0 -5 -7 -2
-16 6 -19 20 -29 20 -46 2 -12 -11 -14 -8 -15 23 0 20 2 30 4 24 6 -18 23 -16
23 2 0 12 -13 15 -55 15 -35 0 -55 4 -55 12 0 6 -8 4 -19 -6 -11 -10 -25 -15
-30 -11 -16 9 -13 25 4 25 8 0 15 5 15 10 0 6 -7 10 -15 10 -8 0 -15 -4 -15
-10 0 -5 -18 -8 -40 -6 -30 3 -40 0 -40 -10 0 -8 -9 -14 -20 -14 -11 0 -23 -8
-26 -17 -20 -63 -41 -93 -60 -86 -17 6 -19 33 -3 33 8 0 7 5 -2 16 -10 13 -10
17 2 25 11 7 12 11 1 18 -8 4 -13 17 -12 27 1 11 1 24 0 29 -1 6 -1 24 0 40
l1 30 -153 0 c-84 0 -157 -3 -163 -6 -5 -4 -27 -5 -47 -4 -27 2 -38 -1 -38
-10 0 -24 -22 -29 -37 -9 -15 20 -13 21 -43 -26 -9 -13 -11 -13 -20 2 -14 24
-53 6 -66 -30 l-9 -26 -20 20 c-26 27 -50 35 -64 21 -14 -14 -28 -1 -34 33 -3
19 -5 17 -6 -10 l-1 -35 -85 3 c-86 3 -121 22 -42 22 54 0 88 10 81 22 -3 5
-33 8 -65 7 -47 -2 -62 1 -72 15 -12 16 -16 17 -35 5 -27 -17 -28 -29 -2 -22
14 4 20 0 20 -12 0 -14 -6 -16 -31 -11 -17 3 -35 6 -40 6 -5 0 -9 7 -9 15 0
22 -27 18 -33 -5 -5 -20 -27 -28 -27 -10 0 6 5 10 10 10 6 0 10 7 10 15 0 16
-16 20 -24 6 -3 -5 -23 -7 -45 -4 -33 5 -39 2 -44 -17 -3 -12 -15 -24 -26 -27
-19 -5 -25 -15 -22 -35 1 -11 -21 -10 -38 1 -10 6 -13 28 -12 76 1 37 4 72 7
77 4 6 -60 8 -174 6 -151 -2 -183 -6 -198 -20 -14 -12 -31 -15 -66 -11 -51 6
-83 -9 -74 -34 3 -7 1 -13 -3 -13 -5 0 -11 7 -15 15 -8 21 -38 19 -59 -5 -9
-11 -25 -20 -34 -20 -14 0 -15 2 -4 9 9 6 10 10 2 16 -7 4 -19 1 -28 -7 -11
-9 -17 -9 -20 -2 -4 11 -113 10 -162 -1 -41 -10 -161 6 -161 21 0 9 14 15 43
16 l42 1 -40 4 c-22 2 -46 12 -54 21 -12 15 -13 12 -7 -25 4 -27 2 -43 -4 -43
-5 0 -10 7 -10 16 0 9 -9 18 -19 21 -11 3 -22 15 -24 27 -3 14 -5 10 -6 -12
l-1 -32 -37 16 c-21 9 -57 17 -80 18 -39 2 -42 1 -37 -20 3 -12 1 -25 -5 -28
-6 -4 -11 -16 -11 -27 0 -11 -7 -22 -15 -25 -12 -5 -13 -10 -4 -20 8 -10 8
-14 0 -14 -6 0 -11 -8 -11 -17 -1 -10 -7 -3 -15 16 -8 18 -15 62 -15 97 l0 64
-237 -2 -237 -3 -14 -25 -14 -25 6 28 c6 25 4 27 -23 27 -16 0 -33 -4 -36 -10
-3 -5 -26 -10 -51 -10 -24 0 -44 5 -44 10 0 6 -9 10 -20 10 -11 0 -20 -4 -20
-9 0 -15 -33 -23 -41 -9 -6 9 -11 9 -23 -1 -15 -12 -15 -15 1 -27 25 -18 13
-17 -27 3 -31 15 -32 17 -15 30 17 12 17 13 2 13 -9 0 -17 -4 -17 -10 0 -5
-20 -10 -45 -10 -25 0 -45 5 -45 10 0 18 -31 10 -51 -12 l-18 -23 -1 23 c0 22
0 22 -170 21 l-170 0 0 -24 c0 -13 -4 -27 -10 -30 -6 -3 -10 -18 -10 -33 0
-21 -3 -23 -10 -12 -5 8 -12 11 -16 7 -12 -12 -33 14 -44 54 l-11 39 -700 0
-701 0 4 -50 c1 -28 -1 -50 -5 -50 -4 0 -3 -10 4 -21 7 -14 7 -19 0 -15 -16
10 -30 -25 -37 -98 -5 -54 -10 -66 -23 -64 -12 3 -20 34 -36 151 l-20 147
-262 0 c-191 -1 -263 -4 -263 -13 0 -8 -3 -8 -12 1 -9 9 -134 12 -499 12 -419
0 -488 -2 -492 -15 -5 -13 -10 -13 -41 0 -28 12 -85 15 -256 15 l-220 0 0
-319z m497 252 c-15 -16 -17 -16 -17 -1 0 9 6 18 13 21 20 7 22 -2 4 -20z
m3768 -13 c3 -6 -1 -7 -9 -4 -18 7 -21 14 -7 14 6 0 13 -4 16 -10z m1238 -7
c-13 -2 -33 -2 -45 0 -13 2 -3 4 22 4 25 0 35 -2 23 -4z m-223 -13 c0 -5 -9
-10 -21 -10 -11 0 -17 5 -14 10 3 6 13 10 21 10 8 0 14 -4 14 -10z m1860 6 c0
-3 -4 -8 -10 -11 -5 -3 -10 -1 -10 4 0 6 5 11 10 11 6 0 10 -2 10 -4z m-3537
-23 c2 -5 7 -21 11 -37 7 -27 6 -28 -21 -22 -36 9 -57 30 -50 50 6 16 52 22
60 9z m4074 -75 c-3 -7 -5 -2 -5 12 0 14 2 19 5 13 2 -7 2 -19 0 -25z m-1357
-35 c0 -20 -34 -12 -38 9 -2 12 2 15 17 11 12 -3 21 -12 21 -20z m1570 -23 c0
-5 -4 -10 -10 -10 -5 0 -10 5 -10 10 0 6 5 10 10 10 6 0 10 -4 10 -10z m1293
-7 c-7 -2 -19 -2 -25 0 -7 3 -2 5 12 5 14 0 19 -2 13 -5z m-6433 -29 c0 -2 -7
-4 -15 -4 -8 0 -15 4 -15 10 0 5 7 7 15 4 8 -4 15 -8 15 -10z m-157 -1 c-7 -2
-19 -2 -25 0 -7 3 -2 5 12 5 14 0 19 -2 13 -5z m1157 -3 c12 -8 9 -10 -13 -10
-16 0 -26 4 -22 10 8 12 16 12 35 0z m389 -3 c132 -1 196 -6 198 -13 5 -16
-55 -26 -78 -14 -10 6 -19 7 -19 3 0 -4 -18 -8 -40 -8 -22 0 -40 2 -40 5 0 4
-131 9 -294 10 -32 0 -64 4 -70 7 -16 11 40 19 99 16 28 -2 137 -5 244 -6z
m319 -15 c3 -9 -3 -13 -19 -10 -12 1 -24 9 -27 16 -3 9 3 13 19 10 12 -1 24
-9 27 -16z m-71 2 c-3 -3 -12 -4 -19 -1 -8 3 -5 6 6 6 11 1 17 -2 13 -5z m140
0 c-3 -3 -12 -4 -19 -1 -8 3 -5 6 6 6 11 1 17 -2 13 -5z m1091 -6 c52 0 70 -3
66 -11 -3 -7 2 -3 10 7 15 19 16 19 16 -7 0 -26 -2 -27 -37 -23 -21 3 -58 7
-83 10 -25 3 -54 8 -65 12 -13 5 -16 4 -10 -5 6 -11 -37 -12 -225 -7 -128 3
-236 9 -241 12 -34 21 10 24 244 18 138 -4 285 -6 325 -6z m122 -5 c0 5 5 5
11 1 8 -4 8 -9 -1 -18 -8 -8 -13 -7 -20 4 -5 8 -10 20 -10 25 0 6 5 3 10 -5 5
-8 10 -11 10 -7z m771 -8 c10 -3 20 -2 24 4 3 6 11 11 16 11 6 0 8 -3 6 -7 -3
-5 45 -7 106 -6 62 1 121 2 132 2 11 0 50 0 88 0 37 0 67 -3 67 -8 0 -5 9 -7
20 -4 11 3 28 2 37 -3 14 -6 11 -9 -17 -14 -19 -3 -40 -2 -47 2 -6 5 -14 5
-17 0 -5 -9 -450 -6 -543 4 -28 3 -53 11 -56 17 -3 9 19 12 82 11 47 -1 93 -5
102 -9z m-4401 -9 c0 -8 -4 -18 -10 -21 -5 -3 -10 3 -10 14 0 12 5 21 10 21 6
0 10 -6 10 -14z m4937 -8 c-3 -8 -6 -5 -6 6 -1 11 2 17 5 13 3 -3 4 -12 1 -19z
m1090 -2 c11 -5 13 -10 6 -17 -21 -21 -583 -9 -583 12 0 14 540 19 577 5z
m603 -27 c0 -5 -11 -9 -25 -9 -28 0 -34 16 -7 23 20 4 32 -1 32 -14z m-7420
-79 c10 0 24 8 29 18 10 16 10 16 11 0 0 -14 9 -18 40 -18 33 0 40 -3 40 -20
0 -17 7 -20 40 -20 38 0 40 -2 40 -30 l0 -31 -57 2 c-63 2 -113 -13 -113 -33
0 -10 3 -9 9 1 7 11 23 12 70 7 40 -5 61 -3 61 4 0 5 7 10 15 10 17 0 20 -25
5 -35 -5 -3 -10 -15 -10 -26 0 -10 5 -19 10 -19 6 0 10 7 10 15 0 20 10 19 26
-2 13 -17 15 -17 28 0 16 21 26 22 26 2 0 -8 7 -15 15 -15 30 0 65 -24 66 -44
0 -15 2 -17 6 -6 9 23 25 31 51 25 16 -4 22 -1 22 11 0 8 6 14 13 11 6 -2 12
-14 11 -26 0 -17 6 -24 28 -28 15 -3 28 -9 28 -14 0 -4 9 -9 21 -11 11 -2 28
-15 37 -30 16 -27 16 -29 -6 -50 -22 -22 -28 -23 -245 -24 -122 -1 -301 2
-397 6 -96 5 -258 11 -360 14 -204 5 -227 8 -249 32 -9 9 -10 14 -3 10 15 -9
15 -1 2 24 -8 15 -7 17 12 12 15 -3 19 -2 14 7 -5 7 4 15 23 22 17 6 31 17 31
24 0 14 21 25 53 26 21 0 21 1 2 8 -17 7 -16 9 10 13 16 4 37 2 47 -3 29 -15
49 -10 87 23 30 26 37 29 39 15 5 -23 78 -23 104 0 17 15 19 15 38 -2 13 -12
20 -14 20 -5 0 7 7 10 16 6 9 -3 21 -3 27 1 7 4 42 6 80 5 42 -1 66 2 62 8 -3
6 -38 10 -76 10 -44 0 -68 4 -64 10 3 6 3 10 -2 11 -72 6 -193 6 -193 -1 0 -4
-20 0 -45 9 -25 9 -45 19 -45 22 0 26 306 50 322 26 4 -8 15 -7 33 1 14 7 35
12 46 12 11 0 18 4 14 10 -3 5 -11 7 -18 5 -44 -13 -77 -14 -77 -1 0 8 16 16
40 20 22 3 40 12 40 19 0 6 5 4 11 -5 5 -10 19 -18 29 -18z m1290 14 c0 -12 7
-14 33 -10 17 3 25 3 17 -1 -8 -3 -21 -12 -28 -20 -11 -11 -11 -13 0 -14 7 0
4 -5 -7 -10 -17 -8 -17 -9 5 -4 14 2 32 5 40 6 10 0 9 3 -5 10 -21 10 10 8
104 -7 32 -5 42 -4 37 4 -4 7 -20 12 -35 12 -45 0 -91 12 -85 21 3 5 30 9 60
9 41 0 54 -4 54 -15 0 -8 7 -15 16 -15 8 0 13 -4 10 -8 -3 -5 7 -8 22 -6 15 1
33 2 41 3 9 1 6 8 -9 21 -13 11 -20 23 -17 27 4 3 16 -2 27 -12 18 -16 20 -16
26 -1 8 21 20 21 28 -1 4 -9 1 -20 -6 -25 -10 -6 -9 -8 4 -8 9 0 18 -10 20
-22 4 -19 7 -16 22 20 19 45 42 52 39 11 -2 -35 6 -57 16 -41 6 10 14 7 34 -8
15 -12 27 -26 27 -31 0 -5 -31 -9 -70 -9 -43 0 -70 -4 -70 -11 0 -7 30 -8 95
-3 68 5 95 4 95 -5 0 -6 -7 -11 -15 -11 -25 0 -17 -17 13 -25 56 -14 122 -48
137 -71 8 -13 25 -24 36 -24 11 0 18 -4 15 -8 -3 -5 4 -16 15 -25 28 -25 25
-65 -7 -77 -16 -7 -217 -10 -528 -9 -470 1 -596 5 -613 22 -25 25 9 117 43
117 7 0 11 6 8 13 -9 23 32 54 81 60 26 4 51 4 56 1 5 -3 9 4 9 15 0 18 6 21
39 21 29 0 41 -5 44 -17 4 -14 5 -13 6 4 1 29 17 38 29 16 9 -14 13 -15 26 -4
13 11 16 11 16 -2 0 -18 33 -12 51 9 16 20 -28 28 -125 22 -46 -3 -91 -1 -100
4 -12 7 -22 6 -29 -1 -14 -14 -64 -14 -72 -1 -3 6 -15 10 -26 10 -12 0 -19 7
-19 20 0 11 7 20 15 20 8 0 23 4 33 10 35 20 106 39 112 30 4 -6 19 -6 40 0
43 12 40 13 40 -5 0 -9 -10 -15 -22 -16 -20 -1 -21 -2 -3 -6 13 -4 27 4 42 23
l24 29 20 -27 c12 -16 30 -28 42 -27 l22 0 -22 11 c-26 13 -30 28 -8 28 8 0
15 7 15 15 0 8 5 15 10 15 6 0 10 -7 10 -16z m1715 -8 c33 -2 60 -5 60 -5 0
-1 27 -4 60 -6 33 -3 62 -10 63 -15 5 -13 42 -13 42 0 0 6 5 10 11 10 6 0 8
-8 4 -19 -3 -11 -1 -22 4 -25 5 -4 16 -19 24 -35 13 -26 13 -28 -3 -24 -20 5
-33 -19 -23 -43 3 -9 13 -14 24 -11 11 3 22 -1 27 -8 4 -7 14 -15 22 -17 22
-5 30 -20 24 -48 -4 -20 -3 -22 5 -10 10 13 12 13 21 0 5 -8 10 -22 11 -30 1
-8 3 -19 3 -25 1 -5 5 -16 9 -22 5 -9 3 -13 -7 -13 -9 0 -16 -6 -16 -14 0 -21
-112 -26 -579 -26 -470 0 -479 1 -473 55 2 17 10 43 18 59 9 19 11 34 4 46 -7
12 -5 34 5 67 8 26 15 49 15 50 0 0 -9 -1 -19 -4 -18 -4 -18 -2 -9 44 12 57
16 62 28 43 8 -12 10 -10 10 9 0 20 4 22 24 17 14 -3 27 -3 29 1 5 8 469 7
582 -1z m-3285 -17 c0 -24 -23 -21 -28 4 -2 10 3 17 12 17 10 0 16 -9 16 -21z
m1940 -5 c0 -8 -4 -14 -10 -14 -5 0 -10 9 -10 21 0 11 5 17 10 14 6 -3 10 -13
10 -21z m2734 12 c27 -3 53 -9 59 -15 7 -7 15 -7 25 2 12 9 16 9 19 0 3 -7 17
-13 33 -13 26 0 28 -3 32 -46 2 -25 0 -48 -4 -50 -15 -10 -8 -40 17 -66 14
-15 25 -32 25 -37 0 -5 13 -17 28 -26 30 -18 36 -54 15 -90 -15 -26 -103 -30
-580 -30 -418 0 -403 -3 -385 82 18 81 26 146 23 193 -3 63 12 98 46 103 33 5
575 -1 647 -7z m1091 -11 c53 -3 75 -1 65 5 -8 5 -10 10 -4 10 5 0 14 -4 20
-9 5 -5 39 -12 76 -14 36 -3 71 -8 77 -11 6 -4 13 -22 17 -41 5 -27 11 -35 33
-38 20 -3 17 -4 -11 -6 -31 -1 -38 -5 -38 -21 0 -12 7 -20 16 -20 10 0 14 -6
10 -15 -3 -8 1 -21 9 -29 8 -8 15 -18 15 -23 0 -11 37 -43 50 -43 15 0 24 -51
13 -69 -15 -24 -90 -29 -489 -30 -389 -1 -399 0 -391 49 2 14 7 32 10 40 12
28 25 135 20 161 -2 14 0 44 6 67 l12 41 122 3 c133 3 237 1 362 -7z m-5860
-5 c-3 -5 -10 -10 -16 -10 -5 0 -9 5 -9 10 0 6 7 10 16 10 8 0 12 -4 9 -10z
m6978 -4 c31 -3 63 -8 69 -12 7 -5 8 -3 3 6 -6 10 -1 12 24 7 18 -4 41 -2 52
3 13 8 19 7 19 0 0 -7 8 -9 20 -5 11 4 20 2 20 -4 0 -6 7 -11 15 -11 8 0 15
-5 15 -11 0 -5 4 -8 9 -5 5 3 16 -5 25 -19 9 -14 13 -25 9 -25 -5 0 -2 -4 5
-9 10 -6 4 -14 -22 -31 -27 -16 -40 -19 -50 -11 -7 6 -16 8 -19 4 -12 -11 -8
-23 8 -23 8 0 15 -4 15 -10 0 -5 7 -10 16 -10 18 0 56 -44 64 -74 3 -12 12
-21 20 -22 33 -2 36 -5 35 -30 0 -18 -7 -29 -22 -35 -14 -5 -23 -5 -23 1 0 6
-9 6 -24 0 -30 -11 -716 -13 -734 -2 -11 7 -10 17 2 53 9 24 16 51 16 60 0 9
11 33 25 53 23 33 24 39 10 52 -19 20 -20 19 12 48 22 21 24 27 14 40 -12 14
-10 16 10 16 13 0 35 3 49 5 18 4 20 3 7 -3 -11 -4 35 -8 106 -7 96 0 123 3
120 13 -3 7 0 10 8 7 8 -2 40 -6 72 -9z m-5656 -2 c-3 -3 -12 -4 -19 -1 -8 3
-5 6 6 6 11 1 17 -2 13 -5z m-1467 -30 c0 -8 -5 -12 -10 -9 -6 4 -8 11 -5 16
9 14 15 11 15 -7z m2353 -34 c4 -15 0 -20 -14 -20 -15 0 -19 7 -19 31 0 26 3
29 14 20 8 -6 16 -21 19 -31z m-768 -39 c7 -12 -12 -24 -25 -16 -11 7 -4 25
10 25 5 0 11 -4 15 -9z m-2205 -65 c0 -3 -4 -8 -10 -11 -5 -3 -10 -1 -10 4 0
6 5 11 10 11 6 0 10 -2 10 -4z m1543 -3 c-7 -2 -21 -2 -30 0 -10 3 -4 5 12 5
17 0 24 -2 18 -5z m5397 -13 c0 -5 -5 -10 -11 -10 -5 0 -7 5 -4 10 3 6 8 10
11 10 2 0 4 -4 4 -10z"/>
<path d="M1345 18730 c-3 -5 -1 -10 4 -10 6 0 11 5 11 10 0 6 -2 10 -4 10 -3
0 -8 -4 -11 -10z"/>
<path d="M1200 18650 c0 -5 12 -10 28 -10 21 0 24 2 12 10 -20 13 -40 13 -40
0z"/>
<path d="M2333 18709 c14 -8 22 -8 30 0 8 8 3 11 -18 11 -26 -1 -28 -2 -12
-11z"/>
<path d="M2720 18695 c0 -9 6 -12 15 -9 8 4 15 7 15 9 0 2 -7 5 -15 9 -9 3
-15 0 -15 -9z"/>
<path d="M2560 18680 c0 -5 5 -10 10 -10 6 0 10 5 10 10 0 6 -4 10 -10 10 -5
0 -10 -4 -10 -10z"/>
<path d="M2618 18653 c7 -3 16 -2 19 1 4 3 -2 6 -13 5 -11 0 -14 -3 -6 -6z"/>
<path d="M2640 18630 c0 -5 18 -10 40 -10 22 0 40 -4 40 -10 0 -15 74 -12 96
4 29 22 12 28 -42 16 -34 -8 -50 -8 -52 -1 -5 14 -82 14 -82 1z"/>
<path d="M2852 18628 c6 -18 28 -21 28 -4 0 9 -7 16 -16 16 -9 0 -14 -5 -12
-12z"/>
<path d="M2898 18593 c12 -2 32 -2 45 0 12 2 2 4 -23 4 -25 0 -35 -2 -22 -4z"/>
<path d="M4620 18540 c0 -5 5 -10 10 -10 6 0 10 5 10 10 0 6 -4 10 -10 10 -5
0 -10 -4 -10 -10z"/>
<path d="M6990 18610 c0 -5 9 -10 21 -10 11 0 17 5 14 10 -3 6 -13 10 -21 10
-8 0 -14 -4 -14 -10z"/>
<path d="M8120 18682 c0 -13 49 -22 56 -11 3 5 -1 9 -10 9 -8 0 -21 3 -30 6
-9 3 -16 2 -16 -4z"/>
<path d="M7560 18600 c0 -5 5 -10 10 -10 6 0 10 5 10 10 0 6 -4 10 -10 10 -5
0 -10 -4 -10 -10z"/>
<path d="M7630 18600 c0 -5 5 -10 10 -10 6 0 10 5 10 10 0 6 -4 10 -10 10 -5
0 -10 -4 -10 -10z"/>
<path d="M6398 19165 c5 -37 7 -39 27 -32 21 9 19 24 -4 32 -11 3 -22 11 -24
18 -2 7 -2 -1 1 -18z"/>
<path d="M7358 19193 c12 -2 30 -2 40 0 9 3 -1 5 -23 4 -22 0 -30 -2 -17 -4z"/>
<path d="M7443 19193 c9 -2 25 -2 35 0 9 3 1 5 -18 5 -19 0 -27 -2 -17 -5z"/>
<path d="M7670 19190 c-8 -5 -13 -10 -10 -11 3 0 13 -2 22 -4 10 -2 39 -5 65
-7 39 -2 48 0 51 15 3 15 -5 17 -55 17 -32 0 -65 -5 -73 -10z"/>
<path d="M8411 19191 c-11 -7 -10 -10 5 -15 33 -10 228 -35 236 -30 4 3 8 16
8 30 l0 24 -117 0 c-65 0 -124 -4 -132 -9z"/>
<path d="M6820 19130 c0 -5 5 -10 10 -10 6 0 10 5 10 10 0 6 -4 10 -10 10 -5
0 -10 -4 -10 -10z"/>
<path d="M9208 18573 c7 -3 16 -2 19 1 4 3 -2 6 -13 5 -11 0 -14 -3 -6 -6z"/>
<path d="M2608 18021 c20 -12 115 -13 107 -1 -3 5 -32 10 -63 10 -34 0 -52 -4
-44 -9z"/>
<path d="M2783 18003 c9 -2 23 -2 30 0 6 3 -1 5 -18 5 -16 0 -22 -2 -12 -5z"/>
<path d="M2925 17990 c-3 -5 16 -12 42 -16 27 -3 54 -11 61 -16 6 -6 12 -7 12
-2 0 7 54 11 63 5 11 -9 147 -11 147 -2 0 12 -20 18 -95 26 -109 11 -225 14
-230 5z"/>
<path d="M3381 17947 c28 -15 159 -28 159 -16 0 14 -15 17 -100 24 -77 5 -83
4 -59 -8z"/>
<path d="M4595 17841 l-50 -6 60 -14 c33 -7 71 -16 85 -20 14 -3 34 -6 45 -5
63 3 65 4 65 25 0 18 -2 19 -15 9 -12 -10 -24 -10 -53 -2 -55 16 -82 19 -137
13z"/>
<path d="M4810 17806 c0 -23 4 -25 30 -22 17 2 33 0 36 -5 9 -15 41 -10 48 7
4 11 14 14 33 10 73 -13 123 -16 123 -8 0 12 -106 30 -179 31 -30 0 -63 3 -73
7 -14 4 -18 0 -18 -20z"/>
<path d="M5120 17780 c0 -5 7 -10 15 -10 8 0 15 5 15 10 0 6 -7 10 -15 10 -8
0 -15 -4 -15 -10z"/>
<path d="M5185 17770 c3 -5 8 -10 11 -10 2 0 4 5 4 10 0 6 -5 10 -11 10 -5 0
-7 -4 -4 -10z"/>
<path d="M5275 17760 c-3 -6 1 -7 9 -4 18 7 21 14 7 14 -6 0 -13 -4 -16 -10z"/>
<path d="M7046 17634 c-9 -8 -28 -14 -43 -13 -117 9 -142 -18 -33 -36 58 -10
304 -35 307 -31 2 2 -12 13 -32 25 -20 11 -33 17 -30 11 3 -5 1 -10 -4 -10 -6
0 -11 5 -11 10 0 6 -18 10 -40 10 -30 0 -47 7 -66 25 -29 30 -28 29 -48 9z"/>
<path d="M3388 17573 c7 -3 16 -2 19 1 4 3 -2 6 -13 5 -11 0 -14 -3 -6 -6z"/>
<path d="M2000 17550 c0 -5 5 -10 10 -10 6 0 10 5 10 10 0 6 -4 10 -10 10 -5
0 -10 -4 -10 -10z"/>
<path d="M480 17535 l-45 -12 55 -11 c30 -5 65 -13 78 -17 20 -7 22 -4 22 24
0 29 -3 31 -32 30 -18 -1 -53 -7 -78 -14z"/>
<path d="M7408 17543 c6 -2 18 -2 25 0 6 3 1 5 -13 5 -14 0 -19 -2 -12 -5z"/>
<path d="M570 16930 c-12 -8 -9 -10 13 -10 16 0 36 -4 46 -9 13 -7 17 -5 17
10 0 15 -7 19 -31 19 -16 0 -37 -5 -45 -10z"/>
<path d="M668 16703 c6 -2 18 -2 25 0 6 3 1 5 -13 5 -14 0 -19 -2 -12 -5z"/>
<path d="M875 16699 c-10 -15 -6 -16 50 -23 28 -3 73 -10 100 -15 65 -13 85
-13 85 -2 0 5 -19 11 -42 14 -38 5 -100 17 -165 32 -12 3 -25 0 -28 -6z"/>
<path d="M1120 16650 c0 -5 7 -10 16 -10 8 0 12 5 9 10 -3 6 -10 10 -16 10 -5
0 -9 -4 -9 -10z"/>
<path d="M2290 16531 c0 -5 18 -11 41 -15 45 -7 74 3 43 15 -27 11 -84 11 -84
0z"/>
<path d="M4490 16316 c0 -8 61 -12 66 -4 3 4 -11 8 -30 8 -20 0 -36 -2 -36 -4z"/>
<path d="M4576 16311 c-7 -11 71 -19 87 -9 14 9 14 9 -40 14 -23 2 -44 0 -47
-5z"/>
<path d="M720 15730 c0 -5 7 -10 16 -10 8 0 12 5 9 10 -3 6 -10 10 -16 10 -5
0 -9 -4 -9 -10z"/>
<path d="M0 15183 c0 -6 30 -13 68 -16 37 -3 96 -10 132 -16 54 -8 103 -12
270 -23 43 -3 120 4 120 11 0 13 -68 21 -250 31 -91 5 -204 12 -252 16 -58 5
-88 3 -88 -3z"/>
<path d="M4360 12285 c10 -12 9 -15 -8 -15 -11 0 -34 -3 -52 -7 -25 -5 -31 -3
-25 7 9 15 -15 8 -92 -26 -29 -12 -61 -20 -73 -17 -15 4 -19 2 -15 -10 5 -12
-9 -16 -77 -20 -46 -3 -92 -5 -103 -5 -11 0 -31 -2 -45 -5 -14 -2 -43 -7 -65
-11 -96 -17 -136 -29 -148 -45 -6 -9 -25 -22 -42 -30 -16 -7 -24 -16 -18 -18
7 -3 27 3 45 11 36 18 51 13 23 -8 -11 -8 -43 -16 -72 -18 -32 -3 -61 -12 -73
-23 -11 -10 -23 -15 -26 -12 -4 3 -26 -7 -50 -24 -40 -27 -49 -28 -45 -7 2 16
-25 -4 -44 -32 -11 -17 -27 -30 -35 -30 -13 0 -13 -2 -1 -9 12 -8 8 -11 -15
-17 -16 -4 -39 -15 -52 -25 -13 -10 -36 -21 -53 -24 -16 -4 -26 -11 -23 -17 4
-6 -2 -8 -16 -3 -14 4 -20 3 -16 -3 3 -5 -5 -13 -19 -16 -14 -4 -25 -11 -25
-16 0 -6 -8 -10 -19 -10 -10 0 -24 -7 -31 -15 -7 -8 -22 -15 -34 -15 -11 0
-37 -18 -58 -41 -42 -46 -46 -63 -7 -27 14 13 38 30 55 38 16 8 36 19 44 26 8
6 28 14 44 18 17 4 35 13 40 20 14 18 66 30 66 16 0 -6 -9 -21 -20 -32 -13
-15 -16 -24 -9 -29 8 -5 8 -8 0 -13 -6 -4 -15 -5 -20 -2 -14 9 -36 -24 -36
-53 0 -21 -5 -26 -25 -26 -14 0 -29 -6 -33 -13 -5 -7 -20 -17 -33 -23 -14 -5
-23 -13 -19 -18 3 -5 -8 -18 -25 -27 -16 -10 -30 -24 -30 -31 0 -7 -4 -13 -9
-13 -17 0 -63 -49 -56 -59 4 -7 -4 -11 -20 -11 -15 0 -28 -7 -32 -17 -3 -10
-19 -30 -35 -45 -15 -15 -28 -31 -28 -37 0 -6 -7 -7 -17 -4 -11 4 -14 3 -9 -5
4 -7 -2 -15 -16 -21 -13 -5 -32 -18 -42 -30 -11 -11 -25 -21 -33 -21 -7 0 -13
-8 -13 -19 0 -19 -59 -71 -80 -71 -6 0 -9 -4 -5 -9 3 -5 -5 -18 -19 -28 -13
-10 -26 -28 -30 -38 -3 -11 -19 -34 -36 -52 -16 -18 -30 -36 -30 -40 -1 -13
-48 -63 -60 -63 -6 0 -8 -5 -5 -10 3 -6 -7 -18 -24 -27 -16 -10 -32 -26 -35
-36 -3 -14 -10 -17 -25 -12 -16 5 -19 3 -15 -9 6 -16 -24 -91 -54 -134 -11
-15 -29 -44 -40 -64 -19 -34 -20 -37 -4 -41 12 -3 11 -5 -5 -6 -13 0 -24 -5
-24 -11 -1 -5 -2 -13 -3 -17 0 -5 -10 -21 -22 -38 -26 -37 -114 -190 -114
-197 0 -3 -17 -36 -38 -74 -34 -63 -61 -138 -107 -296 -9 -32 -23 -58 -30 -58
-7 0 -18 -21 -25 -47 -8 -27 -19 -51 -26 -56 -7 -4 -16 -22 -19 -40 -4 -17
-13 -43 -21 -57 -7 -14 -29 -61 -49 -105 -20 -44 -45 -98 -55 -120 -30 -64
-94 -265 -86 -272 4 -4 11 -1 15 6 5 7 14 10 20 7 7 -5 11 2 11 16 0 19 2 20
11 8 8 -12 10 -9 6 13 -3 21 -1 27 9 23 10 -4 12 2 7 26 -4 19 -2 29 4 25 5
-3 18 14 28 39 11 26 24 44 34 44 14 0 14 -2 1 -11 -11 -8 -12 -12 -3 -15 9
-4 10 -19 6 -51 -4 -31 -2 -47 7 -53 9 -6 8 -14 -6 -35 -10 -15 -19 -37 -20
-48 -1 -12 -5 -35 -9 -52 -12 -60 -13 -185 -1 -185 6 0 3 -5 -7 -11 -14 -8
-15 -14 -5 -32 14 -27 18 -56 7 -63 -11 -7 23 -94 37 -94 6 0 14 -26 18 -62 3
-35 11 -64 16 -66 6 -2 10 -11 10 -20 0 -13 2 -14 9 -4 8 14 21 -84 21 -163 0
-23 4 -45 9 -50 5 -6 17 -61 25 -124 16 -115 21 -134 34 -115 5 7 14 7 29 -1
17 -9 20 -14 11 -23 -9 -9 -9 -12 0 -12 7 0 12 -7 12 -16 0 -12 -7 -15 -23
-12 -23 4 -24 3 -15 -40 4 -25 13 -51 19 -58 5 -7 9 -18 8 -26 -2 -7 1 -35 5
-61 5 -36 11 -47 22 -43 8 3 14 -1 15 -12 2 -28 4 -36 19 -65 12 -25 12 -30
-1 -38 -12 -7 -11 -15 8 -48 17 -29 23 -58 25 -105 1 -36 5 -63 10 -60 4 3 7
-10 7 -28 -1 -18 4 -48 12 -67 13 -32 53 -81 66 -81 3 0 2 36 -1 80 -4 44 -4
85 1 92 4 7 8 21 9 31 1 9 2 23 3 31 1 17 38 28 45 12 2 -6 5 5 5 24 1 19 7
53 15 75 7 22 13 54 11 72 -1 18 2 30 7 27 4 -3 8 6 8 20 0 14 5 26 10 26 6 0
10 9 10 20 0 32 78 300 92 318 6 6 8 12 4 12 -8 0 43 140 60 165 16 23 18 39
4 30 -5 -3 -10 -3 -11 2 0 4 -3 19 -5 33 -7 35 15 101 42 128 27 26 34 27 34
6 0 -12 6 -15 24 -10 15 4 26 1 29 -7 4 -9 7 -9 14 1 11 14 73 34 73 23 0 -4
18 -14 40 -21 27 -9 40 -19 40 -32 0 -12 14 -24 40 -34 22 -9 40 -21 40 -26 0
-7 16 -9 40 -5 30 4 40 2 40 -9 0 -10 9 -12 33 -8 29 5 30 4 15 -9 -10 -8 -18
-19 -18 -26 0 -16 21 -14 34 5 10 13 15 10 32 -23 14 -27 27 -38 42 -37 12 0
22 -5 22 -11 0 -7 12 -17 26 -23 14 -7 23 -16 20 -21 -6 -9 36 -31 59 -31 8 0
19 -9 24 -19 12 -21 60 -41 98 -41 14 0 21 -4 18 -10 -3 -5 1 -10 9 -10 9 0
15 -6 13 -12 -1 -7 8 -14 21 -16 12 -2 22 -8 22 -13 0 -5 7 -9 15 -9 8 0 23
-4 33 -9 26 -13 102 -32 144 -36 20 -1 41 -6 47 -10 6 -3 11 -3 11 2 0 4 26 8
58 9 90 1 161 11 176 23 12 10 13 8 9 -10 -6 -21 -6 -21 17 -3 12 11 28 25 35
32 8 6 20 12 29 12 8 0 18 5 22 11 3 6 17 9 30 6 20 -3 22 -2 13 9 -9 11 -6
14 14 14 14 0 32 6 39 13 7 7 37 26 67 43 51 27 53 29 28 32 -16 2 -25 8 -21
14 6 9 -27 6 -78 -8 -13 -4 -16 -1 -12 10 3 9 1 16 -5 16 -6 0 -11 -6 -11 -12
0 -9 -4 -8 -10 2 -6 10 -10 11 -10 3 0 -7 -9 -13 -20 -13 -13 0 -20 7 -20 19
0 17 5 19 35 14 21 -3 52 1 78 11 71 27 138 36 144 20 8 -22 40 -16 69 13 37
37 34 91 -8 151 -24 35 -28 45 -17 58 7 8 18 13 25 10 7 -3 18 2 24 10 16 19
74 18 90 -1 9 -11 28 -15 60 -14 25 1 52 -1 58 -5 6 -4 17 2 24 14 8 12 24 20
43 21 28 0 28 1 8 9 -36 14 -29 47 12 64 40 17 45 31 13 39 -12 4 -19 9 -15
13 4 4 2 13 -4 21 -9 10 -6 13 15 13 30 0 63 25 46 35 -19 12 -10 24 23 33 31
8 32 10 33 63 0 35 4 53 11 52 16 -3 75 57 70 71 -2 6 -14 16 -27 23 -14 7
-28 20 -31 30 -5 12 -8 3 -8 -24 -1 -60 -17 -53 -24 10 -4 45 -2 55 16 70 l22
19 -26 -6 c-15 -3 -34 0 -45 9 -17 13 -17 14 -1 15 9 0 17 7 17 15 0 8 0 18 1
22 0 4 -3 9 -8 10 -13 5 -36 -56 -31 -82 3 -14 1 -22 -3 -19 -5 3 -9 16 -9 30
0 29 -17 32 -23 4 -4 -17 -5 -17 -4 2 1 13 -3 29 -8 37 -5 10 -4 16 3 19 24 8
12 24 -13 18 -27 -7 -28 -3 -27 79 1 24 -3 19 -16 -22 -18 -57 -32 -69 -32
-28 0 14 -4 25 -8 25 -5 0 -10 21 -11 47 -2 66 -11 67 -12 2 0 -39 -3 -49 -9
-34 -5 11 -9 37 -9 57 -1 20 -7 60 -13 90 l-13 53 -8 -40 c-5 -22 -10 -61 -11
-86 -1 -33 -5 -45 -13 -42 -7 3 -13 11 -13 18 0 7 -6 18 -14 24 -8 7 -22 28
-31 47 -9 19 -20 32 -25 29 -6 -4 -8 8 -5 27 3 18 2 26 -1 18 -15 -32 -28 -38
-51 -23 -13 9 -21 19 -18 23 3 5 -17 19 -44 32 -28 13 -50 26 -51 30 0 4 7 4
17 1 11 -4 14 -3 9 6 -5 7 -19 16 -32 21 -14 6 -24 18 -24 30 0 24 39 171 50
185 12 17 32 103 28 117 -7 20 -29 -28 -31 -67 -1 -18 -4 -31 -6 -29 -8 8 -31
-49 -31 -78 0 -23 -4 -29 -15 -24 -9 3 -20 -3 -27 -14 -7 -11 -17 -20 -23 -20
-5 0 -18 -7 -29 -15 -16 -13 -15 -14 18 -12 21 1 36 7 36 15 0 6 5 12 10 12 6
0 10 -5 10 -10 0 -21 -24 -36 -48 -32 -17 3 -23 1 -18 -7 4 -6 11 -9 16 -6 5
3 11 1 15 -5 4 -6 -9 -10 -34 -10 -46 0 -93 -18 -84 -33 4 -6 -16 -8 -58 -3
-45 5 -59 4 -49 -4 9 -6 10 -10 3 -10 -23 0 -23 20 0 67 14 26 35 75 47 108
13 33 49 116 81 183 33 68 59 126 59 129 0 5 15 40 52 121 11 23 24 42 29 42
4 0 6 6 3 14 -5 14 53 128 68 134 4 2 8 12 8 22 0 10 4 21 9 25 8 4 48 97 56
130 3 15 15 47 30 80 8 17 22 49 31 72 10 24 21 38 25 32 6 -10 15 23 35 119
2 12 9 22 14 22 5 0 7 6 4 14 -4 10 12 15 65 20 38 4 82 9 98 12 70 13 251 70
267 85 6 5 18 9 28 9 13 0 18 -8 18 -29 0 -16 6 -31 15 -35 9 -3 15 -19 15
-41 0 -19 4 -43 10 -53 20 -36 38 -88 44 -124 7 -37 60 -234 118 -433 50 -170
262 -791 299 -872 10 -23 19 -51 19 -62 0 -11 4 -22 9 -25 4 -3 18 -34 30 -68
12 -35 27 -72 32 -83 17 -35 28 -85 19 -85 -5 0 -10 10 -12 22 -2 12 -9 23
-17 26 -9 3 -11 -2 -6 -18 6 -19 4 -21 -12 -16 -11 4 -35 0 -54 -8 l-34 -15
35 -2 c19 -1 41 -2 48 -2 6 1 12 -3 12 -8 0 -5 -9 -9 -21 -9 -11 0 -30 -5 -41
-11 -21 -11 -21 -12 -2 -26 17 -13 14 -14 -31 -9 -27 3 -43 3 -34 0 9 -3 19
-19 23 -36 9 -44 8 -48 -9 -48 -11 0 -15 11 -15 37 0 45 -18 33 -23 -16 -3
-22 -13 -38 -32 -51 -31 -20 -52 -50 -37 -50 6 0 13 -11 16 -24 6 -25 31 -36
84 -36 17 0 32 -4 32 -10 0 -5 -13 -10 -30 -10 -28 0 -30 -2 -30 -39 0 -30 4
-40 18 -43 13 -3 11 -7 -12 -20 l-29 -15 35 -12 c19 -6 44 -9 54 -5 16 5 16 3
-3 -14 -26 -23 -33 -92 -10 -92 9 0 12 10 9 30 -4 25 -1 30 17 30 12 0 21 -6
21 -15 0 -8 9 -24 20 -35 24 -24 25 -30 5 -30 -20 0 -19 -16 3 -38 16 -17 19
-16 54 3 22 11 38 28 38 38 0 9 5 17 10 17 6 0 10 -4 10 -10 0 -19 27 -10 55
20 37 39 48 38 62 -7 11 -35 9 -40 -23 -89 -40 -60 -49 -134 -16 -134 10 0 24
-6 30 -12 9 -9 15 -10 20 -2 6 9 37 11 142 5 23 -1 31 -4 22 -10 -19 -12 8
-22 38 -14 13 4 26 0 31 -8 7 -11 9 -11 9 3 0 9 6 19 13 21 7 3 5 6 -6 6 -10
1 -26 19 -39 45 -19 39 -19 47 -7 75 8 17 17 32 21 33 27 5 33 0 35 -27 2 -16
3 -37 4 -45 1 -8 13 -31 25 -50 25 -36 20 -49 -21 -51 l-20 0 20 -8 c11 -5 22
-4 23 0 6 14 52 10 68 -5 8 -8 36 -18 62 -21 26 -4 53 -14 60 -23 6 -9 12 -11
12 -6 0 5 33 10 74 10 72 0 75 0 105 34 22 25 29 41 24 58 -3 14 1 30 10 40 9
10 20 29 26 42 6 16 10 19 10 9 1 -15 39 -34 49 -24 2 2 -6 18 -18 34 -18 26
-19 31 -5 31 9 0 14 -3 11 -8 -2 -4 6 -12 19 -18 20 -10 27 -8 42 9 18 20 17
20 -4 15 -12 -3 -24 -1 -26 6 -3 7 9 10 39 8 32 -3 41 -7 37 -18 -3 -10 0 -12
10 -8 8 3 18 1 22 -5 3 -6 0 -11 -7 -11 -8 -1 -6 -6 6 -15 11 -8 29 -15 40
-14 20 0 20 1 2 8 -12 5 -16 10 -9 14 6 4 22 3 35 -2 27 -10 54 1 44 17 -3 5
-22 10 -42 9 -19 -1 -38 4 -42 9 -4 6 -27 18 -52 28 -25 10 -50 22 -57 28 -7
5 -17 7 -23 3 -5 -3 -10 -2 -10 3 0 19 -204 52 -315 51 -101 -1 -100 -2 -86
14 9 12 -6 13 -91 9 -89 -4 -103 -3 -114 13 -12 16 -10 20 12 32 14 7 30 10
35 7 5 -3 9 0 9 5 0 6 6 11 14 11 7 0 19 7 26 15 7 8 28 17 46 21 19 3 33 9
30 11 -7 7 -116 -19 -116 -28 0 -4 -9 -5 -20 -2 -11 3 -20 0 -20 -6 0 -6 -9
-11 -19 -11 -11 0 -21 -5 -23 -11 -5 -16 -48 -1 -48 16 0 8 5 17 11 21 8 4 7
9 -2 14 -10 7 -9 14 6 36 16 24 19 26 29 11 9 -11 17 -13 27 -6 12 8 11 12 -5
24 -19 14 -19 15 10 16 l29 1 -30 8 c-23 6 -25 8 -8 9 33 2 37 19 6 24 -24 3
-22 5 17 12 l45 9 -35 7 c-22 4 -27 7 -12 8 12 0 22 6 22 11 0 6 9 10 19 10
26 0 36 17 14 23 -21 5 -9 11 41 22 22 5 26 9 16 15 -11 7 -11 10 1 22 27 27
52 36 89 31 29 -4 38 -1 44 12 5 14 2 16 -18 11 -24 -6 -25 -5 -14 25 7 22 14
27 21 20 17 -17 24 -13 31 14 4 15 14 25 24 25 21 0 98 36 106 49 4 5 24 12
45 16 39 6 70 29 57 42 -3 4 -23 8 -43 10 -54 4 -51 10 14 23 82 16 93 20 93
32 0 6 -11 8 -27 4 -65 -16 -86 -18 -80 -8 4 5 0 15 -9 22 -11 10 -23 11 -51
2 -44 -14 -56 -8 -19 9 51 23 22 39 -54 28 -25 -3 -39 -7 -32 -7 23 -3 12 -22
-13 -22 -14 0 -25 5 -25 10 0 6 5 10 11 10 5 0 7 4 4 10 -3 5 12 12 35 16 22
4 40 10 40 15 0 14 -25 11 -77 -9 -26 -11 -70 -19 -98 -20 -48 0 -49 0 -12 7
57 12 59 25 2 16 -27 -4 -51 -11 -53 -16 -2 -5 -41 -6 -90 -2 -78 6 -86 5 -74
-9 10 -13 10 -17 -4 -22 -9 -3 -23 -1 -30 5 -11 9 -19 8 -32 -5 -10 -9 -26
-16 -35 -16 -9 0 -17 -4 -17 -9 0 -5 -13 -11 -28 -14 -33 -7 -80 -42 -70 -52
4 -4 19 2 35 12 15 11 44 26 63 33 19 8 41 20 48 27 15 14 32 17 32 6 -1 -10
-87 -63 -102 -63 -5 0 -8 -7 -5 -14 4 -10 1 -13 -8 -10 -8 3 -20 2 -26 -2 -9
-5 -7 -10 7 -15 16 -7 15 -8 -6 -7 -14 0 -34 -3 -45 -8 -18 -7 -19 -6 -6 9 8
10 12 20 9 22 -7 7 -59 -21 -69 -36 -4 -8 -15 5 -30 37 -12 27 -24 54 -25 59
-2 6 -22 55 -44 110 -23 55 -53 127 -67 160 -37 90 -146 396 -182 510 -45 146
-120 399 -141 480 -39 147 -82 321 -85 340 -2 11 -10 38 -18 60 -9 22 -18 56
-22 76 -7 36 -6 37 67 92 40 31 90 76 111 101 50 59 101 156 89 168 -5 5 -23
-20 -45 -65 -40 -78 -116 -163 -189 -210 -39 -25 -46 -22 -58 23 -10 35 -13
62 -19 133 0 10 -4 16 -9 14 -4 -3 -7 10 -8 29 0 19 3 34 7 34 4 0 11 9 14 20
11 34 25 12 25 -38 0 -26 4 -42 8 -35 4 7 8 25 7 40 0 16 3 30 7 33 4 3 10 17
12 30 7 37 7 37 16 15 7 -17 9 -17 9 -2 1 9 5 17 11 17 5 0 13 -8 19 -17 9
-17 10 -17 16 0 4 9 13 17 21 17 15 0 19 15 7 23 -5 2 -2 2 6 0 7 -2 19 1 26
7 21 17 74 30 81 19 3 -5 9 -7 14 -4 5 3 13 -1 17 -10 7 -12 12 -8 22 20 15
43 28 45 26 5 -2 -37 12 -40 21 -4 4 14 12 23 18 21 13 -5 54 14 55 26 1 4 1
14 1 22 0 8 5 15 10 15 7 0 7 -6 0 -20 -14 -25 7 -28 25 -3 14 19 51 11 39 -9
-6 -10 -4 -10 8 0 9 7 20 12 24 11 5 -1 18 2 28 6 14 6 23 3 33 -11 12 -16 15
-17 24 -4 8 13 11 13 23 -2 7 -10 21 -18 30 -18 9 0 39 -11 66 -25 28 -14 53
-25 57 -25 5 0 50 -27 101 -60 51 -33 102 -60 113 -60 12 0 23 -8 26 -20 3
-11 10 -20 16 -20 6 0 21 -10 34 -22 13 -12 23 -16 23 -10 0 17 22 14 49 -7
13 -10 31 -17 40 -14 9 2 30 -9 46 -24 17 -15 43 -36 59 -46 15 -10 25 -21 22
-24 -6 -6 60 -53 75 -53 5 0 15 -11 21 -25 6 -14 15 -25 20 -25 15 0 8 17 -21
48 -16 16 -27 33 -24 36 8 7 85 -47 103 -73 8 -12 19 -21 24 -21 5 0 24 -16
43 -35 19 -19 39 -35 45 -35 6 0 8 -3 5 -6 -4 -4 8 -21 26 -38 18 -17 49 -52
69 -79 22 -29 38 -43 41 -35 4 8 6 7 6 -4 2 -34 42 -88 65 -88 27 0 56 -29 56
-56 0 -10 7 -32 16 -49 8 -16 25 -57 36 -90 11 -33 26 -67 33 -75 7 -8 16 -26
19 -40 4 -14 11 -34 16 -45 12 -27 48 -153 56 -192 4 -18 10 -33 14 -33 4 0 5
-11 3 -24 -4 -21 -2 -24 16 -19 15 4 19 9 12 17 -6 7 -8 21 -5 33 3 11 -1 42
-9 69 -8 27 -12 54 -10 61 2 6 -6 32 -18 57 -11 25 -22 63 -24 83 -1 21 -5 45
-8 53 -3 8 -8 28 -12 44 -6 27 -5 28 11 15 25 -20 56 -100 49 -126 -3 -13 -2
-23 3 -23 8 0 36 -50 33 -58 -1 -1 5 -15 13 -30 7 -15 17 -47 21 -70 5 -32 10
-41 18 -33 8 8 8 14 -1 23 -18 18 -15 33 4 17 13 -10 17 -10 24 1 7 11 12 11
23 2 12 -11 14 -6 10 30 -3 30 2 58 15 90 21 48 19 57 -18 71 -8 3 0 6 18 6
30 1 33 3 26 24 -3 12 -11 24 -15 25 -5 2 -10 31 -10 65 -1 34 -4 52 -6 40 -3
-15 -12 -23 -24 -23 -15 0 -19 7 -19 39 0 35 3 40 26 43 l26 3 -19 25 c-11 14
-18 31 -16 38 3 6 0 12 -6 12 -6 0 -11 11 -11 24 0 14 -8 31 -17 38 -10 7 -19
23 -21 36 -1 13 -9 31 -18 40 -10 9 -12 18 -6 20 14 4 -17 82 -34 82 -7 0 -15
-6 -17 -12 -3 -8 -6 -6 -6 5 -1 9 4 17 9 17 6 0 10 5 10 10 0 6 -7 10 -15 10
-8 0 -15 8 -15 18 0 9 -7 26 -15 36 -20 27 -19 66 1 66 14 0 14 2 -1 16 -10
10 -12 20 -7 28 18 23 23 48 9 43 -11 -4 -13 2 -11 24 2 16 -1 29 -6 29 -5 0
-7 12 -4 28 4 19 -1 33 -15 49 -12 12 -21 27 -21 33 0 5 -4 10 -10 10 -5 0
-10 5 -10 11 0 6 8 8 18 5 9 -4 4 4 -12 17 -20 16 -27 29 -23 40 8 20 -20 37
-59 37 -22 0 -25 2 -14 15 10 12 10 15 -4 15 -9 0 -16 5 -16 11 0 6 7 8 16 5
8 -3 12 -2 9 4 -3 6 -13 10 -21 10 -8 0 -14 10 -14 23 0 16 -3 18 -9 9 -7 -11
-10 -10 -15 3 -3 9 -3 21 0 27 4 6 -1 6 -14 -1 -15 -8 -20 -7 -19 2 1 32 -4
47 -15 45 -7 -2 -20 12 -30 31 -21 43 -45 67 -55 57 -4 -4 -1 -11 7 -16 10 -6
12 -12 4 -20 -7 -7 -22 0 -50 24 -21 19 -36 37 -32 41 3 4 16 -3 28 -15 12
-12 24 -19 28 -16 9 10 -58 74 -84 80 -13 4 -24 12 -24 19 0 9 -3 8 -9 -2 -7
-11 -13 -10 -35 4 -15 10 -25 24 -22 31 3 8 -11 19 -39 30 -25 9 -42 20 -39
25 3 5 -5 9 -18 9 -19 0 -20 2 -8 11 12 9 11 10 -8 6 -12 -3 -20 -1 -16 4 3 5
0 9 -6 9 -7 0 -24 10 -38 21 l-27 22 28 -7 c15 -3 27 -2 27 3 0 12 -25 21 -61
21 -16 0 -29 4 -29 9 0 5 -14 14 -31 21 -16 7 -28 18 -25 25 3 8 -4 10 -20 7
-13 -2 -24 0 -24 5 0 29 -196 59 -340 52 -63 -3 -97 -7 -75 -8 l40 -3 -35 -10
c-19 -6 -66 -10 -105 -10 -55 0 -62 -1 -30 -7 l40 -6 -41 -12 c-51 -16 -96
-18 -74 -3 13 8 13 10 -2 10 -9 0 -35 -16 -58 -35 -23 -19 -48 -35 -56 -35 -8
0 -14 -10 -14 -25 0 -18 -5 -25 -20 -25 -13 0 -20 7 -20 20 0 12 -8 35 -17 53
-9 18 -17 34 -18 37 0 3 -10 19 -23 35 -15 20 -19 22 -12 8 7 -16 7 -23 0 -23
-5 0 -10 5 -10 11 0 6 -7 9 -15 5 -21 -8 -19 21 3 33 15 9 14 10 -8 9 -14 -1
-55 15 -91 35 -69 39 -79 42 -79 29 0 -4 16 -14 37 -21 36 -13 83 -55 83 -74
0 -5 -7 -6 -16 -3 -14 5 -15 4 -4 -9 11 -13 10 -14 -6 -9 -32 12 -37 16 -24
24 8 5 2 12 -19 21 -26 12 -28 15 -13 21 10 5 -3 7 -33 7 -27 -1 -63 -1 -80 0
-26 2 -27 4 -10 11 18 8 18 9 -5 10 -23 1 -23 2 -5 10 11 5 33 9 48 9 23 1 26
3 15 15 -8 9 -15 10 -19 3 -4 -5 -15 -7 -25 -3 -9 4 -21 2 -24 -5 -4 -6 -18
-9 -31 -7 -22 3 -22 4 14 27 21 13 36 25 33 28 -6 6 -60 -23 -80 -42 -22 -22
-32 -21 -259 23 -27 5 -57 8 -67 5 -12 -3 -22 3 -29 16 -7 12 -21 21 -33 21
-17 0 -18 -2 -8 -15z m297 -91 c-7 -8 -67 8 -62 17 3 4 19 3 36 -3 16 -6 28
-12 26 -14z m48 -4 c3 -6 -1 -7 -9 -4 -18 7 -21 14 -7 14 6 0 13 -4 16 -10z
m-945 -60 c0 -5 -3 -10 -7 -10 -5 0 -18 -3 -30 -6 -17 -5 -23 -2 -23 10 0 11
9 16 30 16 17 0 30 -4 30 -10z m1930 -10 c0 -5 -7 -10 -15 -10 -8 0 -15 5 -15
10 0 6 7 10 15 10 8 0 15 -4 15 -10z m206 -17 c27 -9 43 -18 36 -21 -17 -5
-102 20 -102 30 0 11 10 10 66 -9z m-833 -14 c-6 -6 -9 -19 -6 -28 3 -12 0
-11 -12 4 -14 18 -14 21 1 32 20 15 33 8 17 -8z m-272 -12 c-10 -9 -11 -8 -5
6 3 10 9 15 12 12 3 -3 0 -11 -7 -18z m312 -18 c10 -11 16 -23 14 -26 -6 -6
-47 28 -47 39 0 14 15 8 33 -13z m427 3 c0 -5 -18 -15 -40 -22 -22 -7 -45 -19
-51 -27 -6 -7 -15 -13 -20 -13 -19 0 47 58 71 63 14 2 28 5 33 6 4 0 7 -3 7
-7z m-380 -32 c0 -5 -4 -10 -10 -10 -5 0 -10 5 -10 10 0 6 5 10 10 10 6 0 10
-4 10 -10z m234 -15 c-4 -8 -14 -15 -23 -15 -14 1 -13 3 3 15 25 19 27 19 20
0z m-244 -9 c0 -3 -4 -8 -10 -11 -5 -3 -10 -1 -10 4 0 6 5 11 10 11 6 0 10 -2
10 -4z m25 -16 c3 -5 1 -10 -4 -10 -6 0 -11 5 -11 10 0 6 2 10 4 10 3 0 8 -4
11 -10z m1255 -196 c0 -2 -7 -4 -15 -4 -8 0 -15 4 -15 10 0 5 7 7 15 4 8 -4
15 -8 15 -10z m-3270 -74 c0 -5 -4 -10 -10 -10 -5 0 -10 5 -10 10 0 6 5 10 10
10 6 0 10 -4 10 -10z m3230 -118 c0 -13 -3 -12 -15 4 -19 25 -19 40 0 24 8 -7
15 -20 15 -28z m-1030 -42 c0 -5 -4 -10 -10 -10 -5 0 -10 5 -10 10 0 6 5 10
10 10 6 0 10 -4 10 -10z m-832 -58 c2 -15 4 -37 5 -50 3 -35 31 -23 35 16 2
17 7 32 12 32 17 0 41 -74 35 -106 -7 -38 2 -64 22 -64 11 0 14 7 9 28 -5 22
-4 24 4 9 6 -9 8 -27 5 -38 -5 -15 -4 -19 5 -14 8 5 11 0 8 -15 -2 -13 3 -25
11 -28 9 -3 11 0 7 9 -4 8 2 4 13 -9 11 -13 28 -48 38 -79 l17 -55 -44 -41
c-25 -22 -66 -53 -92 -69 -26 -16 -46 -34 -44 -41 1 -7 1 -9 -1 -4 -3 4 -18 7
-34 7 -17 0 -28 -4 -25 -9 5 -8 -83 -33 -102 -29 -4 0 -15 -2 -24 -6 -9 -4
-27 -6 -40 -4 -27 4 -27 29 0 88 9 19 16 40 17 45 0 6 4 16 8 23 5 6 5 17 2
23 -4 5 1 19 10 29 10 11 15 26 11 36 -7 19 17 170 41 257 6 23 23 12 24 -16
1 -20 2 -20 8 3 3 14 14 37 24 52 10 15 16 32 12 38 -3 5 0 10 7 10 7 0 14
-12 16 -28z m2027 -148 c15 -30 25 -57 23 -60 -3 -2 -13 15 -23 38 -10 24 -25
51 -33 61 -8 9 -10 17 -5 17 6 0 23 -25 38 -56z m75 20 c0 -8 -5 -12 -10 -9
-6 4 -8 11 -5 16 9 14 15 11 15 -7z m-3270 -4 c0 -5 -4 -10 -10 -10 -5 0 -10
5 -10 10 0 6 5 10 10 10 6 0 10 -4 10 -10z m-440 -30 c-9 -6 -7 -11 6 -19 17
-9 16 -10 -8 -11 -16 0 -28 2 -28 5 0 14 25 43 33 38 5 -3 4 -9 -3 -13z m1837
-57 c-3 -10 -5 -4 -5 12 0 17 2 24 5 18 2 -7 2 -21 0 -30z m1208 10 c18 -14
18 -15 2 -9 -10 3 -23 6 -28 6 -5 0 -9 5 -9 10 0 14 12 12 35 -7z m-3048 -29
c-3 -3 -12 -4 -19 -1 -8 3 -5 6 6 6 11 1 17 -2 13 -5z m3696 -44 c3 -11 1 -18
-4 -14 -5 3 -9 12 -9 20 0 20 7 17 13 -6z m-3813 -60 c0 -5 -5 -10 -11 -10 -5
0 -7 5 -4 10 3 6 8 10 11 10 2 0 4 -4 4 -10z m-33 -26 c-9 -9 -28 6 -21 18 4
6 10 6 17 -1 6 -6 8 -13 4 -17z m3883 12 c0 -3 -4 -8 -10 -11 -5 -3 -10 -1
-10 4 0 6 5 11 10 11 6 0 10 -2 10 -4z m-3830 -21 c10 -13 9 -15 -9 -15 -12 0
-21 6 -21 15 0 8 4 15 9 15 5 0 14 -7 21 -15z m1315 -23 c-6 -37 -20 -85 -41
-132 -18 -40 -21 -42 -109 -55 -30 -5 -36 -4 -25 4 13 10 13 12 0 21 -12 8
-11 10 6 10 14 0 24 11 34 34 9 23 22 37 39 41 24 7 25 8 6 15 -19 7 -18 8 8
20 15 7 27 17 27 22 0 5 5 6 12 2 7 -4 8 -3 4 5 -4 6 -1 14 8 17 8 3 12 12 9
20 -3 10 0 12 10 8 10 -3 14 -15 12 -32z m-1365 12 c0 -2 -12 -4 -26 -4 -14 0
-23 4 -20 9 6 8 46 4 46 -5z m1996 -2 c24 -16 26 -50 2 -66 -30 -21 -145 -59
-161 -52 -7 3 -3 7 11 11 12 4 22 11 22 15 0 4 14 10 31 14 17 3 28 10 25 15
-3 5 5 16 19 25 14 9 25 23 25 31 0 16 9 19 26 7z m-2046 -26 c0 -3 -4 -8 -10
-11 -5 -3 -10 -1 -10 4 0 6 5 11 10 11 6 0 10 -2 10 -4z m1210 -71 c-13 -14
-20 -28 -17 -32 4 -3 2 -12 -4 -20 -9 -10 -8 -13 5 -13 9 0 16 8 16 17 0 9 3
14 6 10 15 -14 -9 -47 -34 -48 -27 -1 -27 -1 3 -8 l30 -7 -27 -7 c-14 -4 -34
-4 -42 -1 -9 3 -16 1 -16 -5 0 -6 8 -11 17 -11 18 0 12 -10 -9 -14 -7 -1 -24
-8 -36 -15 -33 -17 -40 -6 -9 14 15 10 28 30 31 50 4 19 10 35 15 35 4 0 17
18 30 40 15 27 29 40 43 40 21 0 21 0 -2 -25z m-1210 1 c0 -3 -4 -8 -10 -11
-5 -3 -10 -1 -10 4 0 6 5 11 10 11 6 0 10 -2 10 -4z m977 -47 c-9 -6 -15 -14
-12 -20 4 -5 -1 -9 -9 -9 -13 0 -13 4 2 30 11 20 20 26 27 19 7 -7 4 -14 -8
-20z m-997 7 c0 -3 -4 -8 -10 -11 -5 -3 -10 -1 -10 4 0 6 5 11 10 11 6 0 10
-2 10 -4z m4165 -6 c3 -5 1 -10 -4 -10 -6 0 -11 5 -11 10 0 6 2 10 4 10 3 0 8
-4 11 -10z m-4195 -54 c0 -3 -4 -8 -10 -11 -5 -3 -10 -1 -10 4 0 6 5 11 10 11
6 0 10 -2 10 -4z m962 -58 c-8 -8 -9 -4 -5 13 4 13 8 18 11 10 2 -7 -1 -18 -6
-23z m448 23 c0 -6 -4 -13 -10 -16 -5 -3 -10 -13 -10 -21 0 -8 -9 -35 -20 -60
-12 -24 -18 -49 -15 -54 3 -6 2 -10 -3 -10 -6 0 -27 -53 -47 -117 -21 -65 -44
-128 -52 -141 -8 -13 -16 -35 -18 -50 -1 -15 -15 -56 -29 -91 -14 -36 -26 -71
-26 -79 0 -7 -18 -57 -40 -109 -22 -53 -40 -105 -40 -115 0 -11 -4 -17 -9 -14
-4 3 -6 -6 -3 -21 4 -21 2 -25 -11 -20 -11 4 -21 -1 -28 -15 -7 -12 -21 -29
-32 -38 -16 -13 -18 -21 -10 -35 10 -17 11 -17 17 2 8 24 44 68 51 62 5 -5
-40 -142 -52 -162 -4 -7 -8 -14 -9 -17 -10 -41 -31 -70 -46 -66 -26 6 -22 -3
5 -14 20 -8 19 -9 -11 -9 -23 -1 -31 3 -26 11 5 8 2 9 -10 5 -10 -4 -29 -7
-42 -7 -40 0 -27 -20 14 -21 20 0 46 -4 57 -9 17 -7 16 -9 -10 -10 -16 -1 -48
-3 -69 -5 -22 -1 -42 -7 -44 -13 -5 -15 -32 -16 -32 -2 0 6 -21 10 -47 10 -64
0 -50 8 27 15 90 9 88 15 -6 15 -77 0 -78 0 -49 16 41 21 41 22 14 34 -22 10
-21 10 9 6 36 -6 43 8 11 24 -25 14 -109 -15 -109 -36 0 -9 -12 -14 -32 -15
-18 0 -42 -4 -53 -9 -15 -6 -7 -9 31 -9 55 -1 104 -19 104 -38 0 -7 6 -13 13
-14 10 0 10 -2 0 -6 -33 -13 -5 -19 80 -17 85 2 87 2 29 -5 -58 -7 -96 -21
-59 -21 9 0 17 -4 17 -10 0 -14 -119 -16 -163 -4 -31 9 -9 18 41 17 l47 -1
-45 8 c-38 6 -40 7 -15 10 22 2 25 4 10 7 -11 3 -26 10 -34 17 -11 8 -13 8 -8
0 4 -7 0 -17 -7 -23 -18 -15 -96 -20 -93 -6 1 5 8 9 15 7 6 -2 12 2 12 8 0 7
-18 9 -52 5 -52 -5 -53 -5 -23 10 39 18 60 19 75 0 7 -8 24 -14 39 -14 22 2
23 2 4 6 -12 2 -27 11 -33 19 -7 8 -19 14 -26 14 -8 0 -14 5 -14 10 0 6 7 10
15 10 8 0 15 9 15 20 0 15 9 21 40 26 22 4 40 10 40 15 0 12 1 12 -67 -6 -31
-8 -66 -15 -78 -15 -18 1 -19 1 -2 11 30 18 19 30 -22 23 -24 -4 -41 -2 -45 5
-5 7 4 11 25 11 34 0 108 29 109 43 0 4 -13 7 -30 7 -16 0 -30 5 -30 11 0 7
10 9 24 5 14 -3 32 -3 40 0 14 5 13 9 -6 26 l-23 20 23 -7 c29 -8 127 15 110
27 -7 4 -33 5 -57 2 -31 -5 -46 -3 -52 7 -6 10 -9 11 -9 2 0 -7 -9 -13 -20
-13 -11 0 -20 5 -20 10 0 6 7 10 15 10 8 0 15 4 15 9 0 5 11 19 24 32 13 13
22 28 19 35 -2 6 7 14 21 18 14 3 26 11 26 17 0 13 81 90 90 84 8 -5 50 40 50
54 0 5 25 28 55 52 30 24 54 49 55 54 0 6 16 23 35 38 19 15 35 37 35 47 0 11
8 24 19 29 19 11 91 80 91 88 0 3 -7 3 -15 -1 -13 -5 -14 -2 -5 15 6 11 18 23
26 26 8 3 14 12 14 19 0 8 7 17 15 20 10 4 13 13 10 25 -5 16 -1 19 32 19 37
1 37 1 14 14 l-23 13 33 8 34 8 -50 8 c-39 6 -51 5 -58 -7 -4 -8 -19 -26 -32
-40 -13 -14 -22 -31 -19 -39 5 -12 -33 -45 -66 -58 -12 -4 -11 -6 3 -6 9 -1
17 -8 17 -17 0 -8 -5 -12 -11 -9 -12 8 -34 -17 -50 -55 -7 -16 -13 -20 -17
-13 -11 18 -36 -2 -28 -22 4 -12 0 -18 -14 -22 -11 -3 -20 -9 -20 -13 0 -4
-11 -15 -24 -23 -21 -14 -25 -14 -30 -1 -3 9 1 17 12 21 29 10 61 44 55 59 -3
8 0 14 7 14 6 0 8 5 5 11 -4 6 2 17 14 25 12 8 21 21 21 27 0 7 9 18 19 24 11
7 22 26 26 43 4 18 13 30 23 30 13 0 12 3 -4 14 -18 14 -18 15 -2 21 10 4 31
25 47 47 16 22 32 39 35 39 19 -3 24 1 29 19 3 13 0 20 -9 20 -8 0 -14 5 -14
10 0 6 4 10 9 10 6 0 18 13 27 30 10 16 29 34 43 39 15 5 34 12 44 16 13 5 17
2 17 -13 0 -11 -16 -31 -40 -47 -22 -15 -38 -30 -36 -32 11 -11 74 20 86 42 7
14 20 25 29 25 14 0 14 2 2 9 -12 8 -9 11 12 17 16 3 26 11 24 18 -2 6 13 16
32 23 45 16 54 16 45 2 -5 -8 -1 -8 13 0 11 6 23 7 27 4 3 -3 6 -1 6 5 0 7 7
12 15 12 8 0 15 -4 15 -9z m-490 -105 c0 -2 -8 -10 -17 -17 -16 -13 -17 -12
-4 4 13 16 21 21 21 13z m3400 -48 c0 -5 -4 -8 -10 -8 -5 0 -10 10 -10 23 0
18 2 19 10 7 5 -8 10 -18 10 -22z m15 -28 c3 -5 -1 -10 -10 -10 -9 0 -13 5
-10 10 3 6 8 10 10 10 2 0 7 -4 10 -10z m65 -240 c0 -5 -10 -10 -22 -10 -19 0
-20 2 -8 10 19 13 30 13 30 0z m-4220 -14 c0 -2 -7 -17 -15 -32 -16 -30 -19
-25 -9 14 5 18 24 33 24 18z m-800 -126 c0 -5 -4 -10 -10 -10 -5 0 -10 5 -10
10 0 6 5 10 10 10 6 0 10 -4 10 -10z m-13 -36 c-3 -3 -12 -4 -19 -1 -8 3 -5 6
6 6 11 1 17 -2 13 -5z m1243 -224 c0 -5 -5 -10 -11 -10 -5 0 -7 5 -4 10 3 6 8
10 11 10 2 0 4 -4 4 -10z m-163 -287 c-16 -16 -47 -12 -47 7 0 5 9 10 19 10
11 0 23 5 27 12 6 9 9 9 12 -1 2 -7 -3 -20 -11 -28z m62 -99 c2 -2 -3 -4 -13
-4 -9 0 -14 -4 -11 -10 3 -5 -3 -10 -14 -10 -11 0 -23 -5 -27 -11 -12 -21 -73
6 -74 33 0 14 123 16 139 2z m-144 -24 c-3 -5 -11 -10 -16 -10 -6 0 -7 5 -4
10 3 6 11 10 16 10 6 0 7 -4 4 -10z m2 -56 c-3 -3 -12 -4 -19 -1 -8 3 -5 6 6
6 11 1 17 -2 13 -5z m99 -16 c5 -7 3 -8 -5 -4 -7 5 -20 1 -29 -7 -17 -15 -35
-21 -62 -18 -16 2 56 39 77 40 6 1 15 -4 19 -11z m71 -43 c2 -6 -19 -10 -48
-11 -47 0 -49 1 -27 13 26 14 70 13 75 -2z m912 1 c10 -12 8 -13 -8 -9 -12 3
-21 9 -21 14 0 14 16 11 29 -5z m-689 -16 c-20 -13 -43 -13 -35 0 3 6 16 10
28 10 18 0 19 -2 7 -10z m-410 -9 c0 -11 -25 -21 -56 -21 -28 0 -32 16 -6 23
31 8 62 7 62 -2z m360 -5 c13 -17 11 -17 -85 -16 -83 2 -92 14 -15 21 36 3 70
6 76 7 6 1 17 -4 24 -12z m-140 -36 c0 -5 -6 -10 -14 -10 -8 0 -18 5 -21 10
-3 6 3 10 14 10 12 0 21 -4 21 -10z m-190 -10 c0 -6 10 -8 24 -4 13 3 27 1 30
-5 4 -7 -1 -11 -13 -11 -10 0 -27 -3 -37 -7 -12 -4 -15 -3 -10 5 4 7 3 12 -3
12 -5 0 -13 -4 -16 -10 -3 -5 -36 -10 -73 -9 l-67 1 69 14 c38 7 71 16 74 19
9 9 22 6 22 -5z m267 4 c-3 -3 -12 -4 -19 -1 -8 3 -5 6 6 6 11 1 17 -2 13 -5z
m952 -69 c0 -5 -6 -1 -14 9 -8 11 -15 24 -15 30 0 5 7 1 15 -10 8 -10 14 -23
14 -29z m-979 25 c0 -5 -7 -10 -15 -10 -8 0 -15 5 -15 10 0 6 7 10 15 10 8 0
15 -4 15 -10z m-365 -80 c-3 -5 -10 -10 -16 -10 -5 0 -9 5 -9 10 0 6 7 10 16
10 8 0 12 -4 9 -10z m2908 -7 c-13 -2 -33 -2 -45 0 -13 2 -3 4 22 4 25 0 35
-2 23 -4z m-2870 -30 c-7 -2 -19 -2 -25 0 -7 3 -2 5 12 5 14 0 19 -2 13 -5z
m2870 0 c-13 -2 -33 -2 -45 0 -13 2 -3 4 22 4 25 0 35 -2 23 -4z m-1463 -13
c0 -5 -5 -10 -11 -10 -5 0 -7 5 -4 10 3 6 8 10 11 10 2 0 4 -4 4 -10z m1418
-5 c-11 -12 -68 -23 -73 -15 -3 5 3 11 12 13 26 7 67 8 61 2z m459 -1 c-3 -3
-12 -4 -19 -1 -8 3 -5 6 6 6 11 1 17 -2 13 -5z m-1827 -8 c0 -3 -4 -8 -10 -11
-5 -3 -10 -1 -10 4 0 6 5 11 10 11 6 0 10 -2 10 -4z m1823 -63 c-7 -2 -19 -2
-25 0 -7 3 -2 5 12 5 14 0 19 -2 13 -5z m-2583 -125 c-23 -10 -21 -12 28 -19
94 -13 123 -20 117 -29 -3 -5 0 -12 6 -15 5 -4 8 -13 5 -21 -9 -24 5 -44 30
-44 20 0 24 -5 24 -31 0 -29 2 -31 33 -27 31 3 33 2 29 -26 -4 -26 -6 -27 -17
-13 -7 9 -20 17 -29 17 -9 0 -16 5 -16 10 0 19 -18 10 -23 -11 -5 -17 -11 -20
-28 -16 -30 8 -48 -8 -41 -35 3 -14 1 -19 -6 -15 -6 4 -16 -6 -24 -23 -7 -16
-20 -31 -28 -31 -8 -1 -28 -3 -45 -4 -16 -2 -86 -3 -154 -4 -75 -1 -129 -6
-138 -12 -10 -9 -13 -8 -13 0 0 7 -5 9 -10 6 -14 -9 8 41 43 95 25 39 33 46
60 44 27 -1 28 -1 5 3 -17 3 -28 11 -28 20 0 19 51 126 63 131 4 2 7 10 7 18
0 9 8 12 28 8 15 -3 38 -1 52 5 23 9 21 10 -20 12 -44 2 -45 2 -10 8 19 3 55
7 80 8 40 1 42 1 20 -9z m-230 -55 c0 -37 -54 -124 -87 -140 -22 -10 -33 -22
-33 -36 0 -19 1 -20 20 -2 23 21 25 10 8 -32 -8 -19 -19 -28 -28 -26 -12 4
-12 2 -2 -5 10 -7 10 -14 2 -33 -9 -19 -18 -24 -48 -23 -20 0 -50 4 -65 9 -21
5 -33 3 -47 -10 -17 -16 -20 -16 -20 -2 0 8 -6 17 -12 20 -10 3 -9 9 4 22 13
15 20 16 31 6 12 -9 16 -8 21 4 4 11 -2 15 -22 16 -25 1 -24 2 8 11 19 6 49
16 65 23 17 7 39 15 49 17 11 1 21 9 24 17 3 9 0 11 -7 6 -18 -11 -81 4 -81
19 0 8 7 16 15 20 9 3 15 18 15 35 0 27 3 29 46 36 65 9 79 15 62 26 -9 6 -7
9 9 9 12 0 24 6 26 13 4 9 8 8 16 -3 10 -13 15 -8 12 13 0 4 4 7 9 7 6 0 10
-8 10 -17z m1185 -3 c-3 -5 -10 -10 -16 -10 -5 0 -9 5 -9 10 0 6 7 10 16 10 8
0 12 -4 9 -10z m-2855 -210 c0 -5 -5 -10 -11 -10 -5 0 -7 5 -4 10 3 6 8 10 11
10 2 0 4 -4 4 -10z m3900 -50 c0 -5 -4 -10 -10 -10 -5 0 -10 5 -10 10 0 6 5
10 10 10 6 0 10 -4 10 -10z m10 -54 c0 -3 -4 -8 -10 -11 -5 -3 -10 -1 -10 4 0
6 5 11 10 11 6 0 10 -2 10 -4z m-3214 -54 c0 -26 -4 -32 -21 -32 -32 0 -36 10
-18 41 22 36 38 32 39 -9z m3194 -13 c0 -6 -4 -7 -10 -4 -5 3 -10 11 -10 16 0
6 5 7 10 4 6 -3 10 -11 10 -16z m10 -40 c0 -5 -9 -9 -19 -9 -11 0 -22 -6 -24
-12 -4 -9 -6 -8 -6 3 -1 8 4 20 10 26 12 12 39 7 39 -8z m80 -19 c0 -5 -4 -10
-10 -10 -5 0 -10 5 -10 10 0 6 5 10 10 10 6 0 10 -4 10 -10z m-2870 -80 c0 -5
-2 -10 -4 -10 -3 0 -8 5 -11 10 -3 6 -1 10 4 10 6 0 11 -4 11 -10z m70 -16 c0
-2 -11 -4 -25 -4 -14 0 -25 4 -25 9 0 4 11 6 25 3 14 -2 25 -6 25 -8z m2718
-83 c3 -8 -1 -12 -9 -9 -7 2 -15 10 -17 17 -3 8 1 12 9 9 7 -2 15 -10 17 -17z
m42 15 c0 -3 -4 -8 -10 -11 -5 -3 -10 -1 -10 4 0 6 5 11 10 11 6 0 10 -2 10
-4z m-1883 -83 c-5 -5 -128 -6 -177 -2 -19 1 8 5 60 8 90 6 126 4 117 -6z m37
-25 c-7 -11 -34 -10 -34 1 0 6 9 9 19 8 11 0 17 -5 15 -9z m-1963 -13 c4 3 11
-7 15 -22 3 -15 7 -33 9 -39 2 -6 -1 -17 -6 -25 -9 -15 -29 -2 -32 22 -2 8 -6
19 -9 25 -4 6 -4 21 -1 35 4 13 8 18 11 11 2 -7 8 -10 13 -7z m26 -227 c-3 -7
-5 -2 -5 12 0 14 2 19 5 13 2 -7 2 -19 0 -25z m37 -77 c4 -5 -3 -7 -14 -4 -23
6 -26 13 -6 13 8 0 17 -4 20 -9z m26 -131 c0 -5 -4 -10 -10 -10 -5 0 -10 5
-10 10 0 6 5 10 10 10 6 0 10 -4 10 -10z m157 -162 c-3 -7 -5 -2 -5 12 0 14 2
19 5 13 2 -7 2 -19 0 -25z"/>
<path d="M4431 11424 c0 -11 3 -14 6 -6 3 7 2 16 -1 19 -3 4 -6 -2 -5 -13z"/>
<path d="M4567 11421 c-5 -22 0 -31 20 -31 7 0 13 11 13 25 0 30 -25 34 -33 6z"/>
<path d="M4442 11380 c0 -14 2 -19 5 -12 2 6 2 18 0 25 -3 6 -5 1 -5 -13z"/>
<path d="M4635 11260 c-18 -29 19 -91 45 -75 11 7 0 45 -12 45 -6 0 -8 -7 -4
-15 3 -8 1 -15 -5 -15 -7 0 -9 13 -7 30 5 31 -5 49 -17 30z"/>
<path d="M4427 11226 c-4 -10 -5 -21 -2 -24 9 -9 17 6 13 25 -3 17 -4 17 -11
-1z"/>
<path d="M4421 11174 c0 -11 3 -14 6 -6 3 7 2 16 -1 19 -3 4 -6 -2 -5 -13z"/>
<path d="M4560 11165 c0 -10 7 -15 18 -13 21 4 19 22 -2 26 -10 2 -16 -3 -16
-13z"/>
<path d="M4537 11104 c-8 -8 1 -24 14 -24 5 0 9 7 9 15 0 15 -12 20 -23 9z"/>
<path d="M4400 11090 c0 -5 5 -10 10 -10 6 0 10 5 10 10 0 6 -4 10 -10 10 -5
0 -10 -4 -10 -10z"/>
<path d="M4466 11083 c-13 -13 10 -34 45 -39 50 -8 60 -24 17 -25 -30 -2 -31
-2 -6 -6 15 -2 38 3 50 11 18 13 19 16 5 16 -9 0 -17 4 -17 9 0 5 -8 11 -17
15 -52 18 -72 23 -77 19z"/>
<path d="M3767 10673 c-14 -13 -6 -33 13 -33 22 0 23 1 14 24 -7 17 -16 20
-27 9z"/>
<path d="M3595 9850 c-3 -5 -1 -10 4 -10 6 0 11 5 11 10 0 6 -2 10 -4 10 -3 0
-8 -4 -11 -10z"/>
<path d="M3263 9833 c9 -2 25 -2 35 0 9 3 1 5 -18 5 -19 0 -27 -2 -17 -5z"/>
<path d="M3255 9799 c-26 -6 -23 -7 18 -8 26 0 47 1 47 3 0 9 -37 12 -65 5z"/>
<path d="M3500 9790 c0 -5 5 -10 10 -10 6 0 10 5 10 10 0 6 -4 10 -10 10 -5 0
-10 -4 -10 -10z"/>
<path d="M3410 9770 c-30 -7 -27 -8 22 -6 31 0 54 4 51 9 -5 8 -24 7 -73 -3z"/>
<path d="M3268 9763 c6 -2 18 -2 25 0 6 3 1 5 -13 5 -14 0 -19 -2 -12 -5z"/>
<path d="M3178 9743 c7 -3 16 -2 19 1 4 3 -2 6 -13 5 -11 0 -14 -3 -6 -6z"/>
<path d="M3468 9723 c12 -2 30 -2 40 0 9 3 -1 5 -23 4 -22 0 -30 -2 -17 -4z"/>
<path d="M3568 9713 c6 -2 18 -2 25 0 6 3 1 5 -13 5 -14 0 -19 -2 -12 -5z"/>
<path d="M3235 9650 c-26 -7 -24 -8 20 -9 36 0 46 2 35 9 -8 5 -17 9 -20 9 -3
-1 -18 -5 -35 -9z"/>
<path d="M3813 8943 c-21 -8 -15 -33 7 -33 13 0 20 7 20 20 0 20 -5 23 -27 13z"/>
<path d="M5065 12220 c-3 -6 1 -7 9 -4 18 7 21 14 7 14 -6 0 -13 -4 -16 -10z"/>
<path d="M3565 12110 c-18 -8 -17 -9 8 -9 15 -1 27 4 27 9 0 12 -8 12 -35 0z"/>
<path d="M6078 12063 c7 -3 16 -2 19 1 4 3 -2 6 -13 5 -11 0 -14 -3 -6 -6z"/>
<path d="M6118 12053 c6 -2 10 -9 6 -14 -3 -5 2 -9 10 -9 28 0 66 -23 66 -41
0 -19 26 -33 42 -22 7 3 8 1 4 -5 -4 -7 -1 -12 8 -12 23 0 127 -70 121 -80 -4
-6 3 -10 15 -10 11 0 28 -9 37 -20 10 -11 21 -20 26 -20 4 0 -6 14 -22 32 -21
23 -27 35 -18 40 7 5 2 8 -15 8 -35 0 -63 11 -49 19 5 4 -11 17 -37 31 -26 13
-60 33 -75 43 -32 22 -119 67 -127 66 -3 0 1 -3 8 -6z"/>
<path d="M6181 11984 c0 -11 3 -14 6 -6 3 7 2 16 -1 19 -3 4 -6 -2 -5 -13z"/>
<path d="M2847 11665 c-20 -19 -42 -35 -48 -35 -6 0 -26 -13 -45 -29 -28 -25
-31 -31 -18 -41 14 -13 33 -2 105 59 13 11 35 30 49 41 24 20 24 21 2 10 -22
-11 -23 -10 -12 9 15 29 10 27 -33 -14z"/>
<path d="M2838 11564 c-21 -13 -38 -27 -38 -29 0 -7 49 19 75 39 32 25 4 17
-37 -10z"/>
<path d="M2683 11534 l-28 -27 25 7 c14 4 31 8 38 8 6 1 12 7 12 14 0 25 -19
24 -47 -2z"/>
<path d="M2725 11480 c-27 -23 -59 -46 -72 -51 -13 -5 -23 -17 -23 -27 0 -10
-11 -24 -25 -30 -14 -6 -25 -18 -25 -26 0 -17 -35 -30 -52 -20 -9 6 -9 3 1 -9
9 -11 10 -17 2 -17 -6 0 -11 -6 -11 -13 0 -7 -9 -19 -19 -27 -11 -7 -18 -17
-15 -21 3 -5 -4 -17 -14 -27 -10 -10 -16 -24 -14 -30 2 -7 -1 -12 -7 -12 -6 0
-11 5 -11 11 0 5 -5 7 -11 3 -8 -4 -7 -9 2 -15 11 -6 10 -11 -2 -26 -14 -16
-39 -67 -39 -78 0 -3 5 -5 10 -5 6 0 10 5 10 12 0 6 7 20 17 30 9 10 21 27 27
37 37 63 91 137 117 158 16 14 29 31 29 38 0 7 10 15 23 19 12 3 31 20 41 38
19 32 61 75 100 104 11 7 17 16 14 19 -3 3 -27 -13 -53 -35z"/>
<path d="M2650 11490 c0 -6 -11 -16 -25 -22 -15 -7 -24 -17 -21 -25 3 -7 2
-12 -3 -10 -10 3 -56 -30 -93 -66 -15 -15 -28 -25 -28 -21 0 4 -9 -5 -20 -19
-11 -14 -20 -31 -20 -37 0 -7 -7 -10 -15 -6 -9 3 -25 -8 -42 -32 -41 -56 -103
-132 -145 -179 -40 -45 -47 -63 -24 -63 8 0 24 16 36 35 12 19 25 35 29 35 15
0 101 94 101 110 0 21 136 167 146 157 4 -4 22 9 40 28 17 19 37 35 43 35 6 0
11 4 11 9 0 5 14 23 30 39 34 34 37 42 15 42 -8 0 -15 -5 -15 -10z"/>
<path d="M5091 11414 c0 -11 3 -14 6 -6 3 7 2 16 -1 19 -3 4 -6 -2 -5 -13z"/>
<path d="M6837 11379 c7 -7 15 -10 18 -7 3 3 -2 9 -12 12 -14 6 -15 5 -6 -5z"/>
<path d="M6860 11321 c0 -6 5 -13 10 -16 6 -3 10 -17 10 -30 0 -12 7 -25 15
-29 8 -3 15 -12 15 -21 0 -8 5 -15 10 -15 15 0 12 16 -6 31 -8 7 -13 21 -11
31 3 10 1 18 -3 18 -5 0 -12 9 -15 20 -6 20 -25 28 -25 11z"/>
<path d="M4800 11254 c0 -8 5 -12 10 -9 6 3 10 10 10 16 0 5 -4 9 -10 9 -5 0
-10 -7 -10 -16z"/>
<path d="M6918 11188 c7 -7 12 -22 12 -35 0 -13 5 -23 10 -23 6 0 10 8 10 18
-1 19 -23 52 -36 52 -4 0 -3 -5 4 -12z"/>
<path d="M6990 11176 c0 -9 -4 -16 -10 -16 -5 0 -10 -7 -10 -15 0 -23 14 -18
27 10 6 14 7 27 2 31 -5 3 -9 -2 -9 -10z"/>
<path d="M7035 11144 c0 -26 3 -28 23 -16 10 7 8 12 -5 25 -17 14 -18 14 -18
-9z"/>
<path d="M6947 11085 c7 -46 23 -71 23 -34 -1 13 -7 35 -15 49 -14 24 -14 24
-8 -15z"/>
<path d="M7003 11094 c-3 -9 2 -46 11 -84 9 -37 16 -78 17 -91 0 -23 1 -23 9
-4 8 18 9 18 9 -5 2 -42 13 -70 27 -70 18 0 18 -10 -1 -24 -13 -10 -12 -16 5
-53 11 -24 26 -43 35 -43 11 0 14 -6 9 -25 -7 -27 15 -125 28 -125 14 0 8 61
-9 91 -23 39 -9 48 23 14 20 -21 23 -30 12 -36 -9 -6 -6 -8 8 -7 15 2 20 7 16
20 -2 10 4 28 13 38 16 17 17 25 6 59 -6 21 -8 47 -5 57 6 18 6 18 -8 0 -14
-17 -16 -15 -37 38 -13 31 -27 56 -32 56 -5 0 -9 9 -9 20 0 21 20 29 20 8 1
-17 28 -53 35 -46 3 3 -3 22 -14 41 -14 26 -17 37 -8 41 7 2 -13 3 -43 2 -47
-2 -51 -1 -27 8 15 5 27 13 27 18 0 4 -7 5 -15 2 -9 -4 -16 0 -17 7 0 8 -2 19
-2 24 -2 15 -57 85 -68 85 -5 0 -11 -7 -15 -16z m51 -86 c-3 -4 -9 -8 -15 -8
-5 0 -9 4 -9 8 0 5 7 9 15 9 8 0 12 -4 9 -9z m155 -290 c-1 -19 -3 -25 -6 -15
-3 12 -10 16 -21 12 -13 -5 -12 -2 3 15 24 26 25 26 24 -12z"/>
<path d="M6268 11033 c7 -3 16 -2 19 1 4 3 -2 6 -13 5 -11 0 -14 -3 -6 -6z"/>
<path d="M2257 11013 c-4 -3 -7 -11 -7 -17 0 -6 5 -5 12 2 6 6 9 14 7 17 -3 3
-9 2 -12 -2z"/>
<path d="M2165 10980 c-9 -16 -20 -30 -25 -30 -6 0 -10 -7 -10 -15 0 -8 -4
-15 -10 -15 -5 0 -10 -6 -10 -14 0 -7 -7 -19 -15 -26 -29 -24 -96 -132 -91
-146 3 -8 0 -13 -7 -11 -7 1 -13 -12 -15 -31 -3 -31 -2 -32 17 -20 21 13 36
52 26 68 -7 12 11 42 51 87 20 21 34 30 39 24 9 -16 25 -14 25 3 0 8 6 17 13
20 6 3 2 3 -10 0 -18 -4 -20 -1 -16 16 6 22 14 25 29 10 8 -8 15 -6 24 5 12
14 12 16 -1 15 -39 -6 -43 1 -16 25 15 14 27 35 27 45 0 28 -7 25 -25 -10z"/>
<path d="M6970 10998 c0 -7 5 -20 10 -28 8 -12 10 -9 10 13 0 15 -4 27 -10 27
-5 0 -10 -6 -10 -12z"/>
<path d="M6320 10930 c0 -6 7 -10 15 -10 8 0 15 2 15 4 0 2 -7 6 -15 10 -8 3
-15 1 -15 -4z"/>
<path d="M4463 10913 c9 -2 23 -2 30 0 6 3 -1 5 -18 5 -16 0 -22 -2 -12 -5z"/>
<path d="M4360 10902 c0 -15 13 -22 24 -13 6 5 22 11 36 14 16 3 10 5 -17 6
-24 0 -43 -3 -43 -7z"/>
<path d="M4425 10891 l-30 -8 27 -7 c32 -9 64 -4 61 9 -3 13 -21 15 -58 6z
m52 -7 c-3 -3 -12 -4 -19 -1 -8 3 -5 6 6 6 11 1 17 -2 13 -5z"/>
<path d="M4900 10860 c0 -5 5 -10 11 -10 5 0 7 5 4 10 -3 6 -8 10 -11 10 -2 0
-4 -4 -4 -10z"/>
<path d="M7200 10850 c0 -5 5 -10 10 -10 6 0 10 5 10 10 0 6 -4 10 -10 10 -5
0 -10 -4 -10 -10z"/>
<path d="M2050 10755 c-8 -9 -8 -15 -2 -15 12 0 26 19 19 26 -2 2 -10 -2 -17
-11z"/>
<path d="M4408 10743 c7 -3 16 -2 19 1 4 3 -2 6 -13 5 -11 0 -14 -3 -6 -6z"/>
<path d="M5118 10728 c5 -5 16 -8 23 -6 8 3 3 7 -10 11 -17 4 -21 3 -13 -5z"/>
<path d="M5168 10713 c6 -2 18 -2 25 0 6 3 1 5 -13 5 -14 0 -19 -2 -12 -5z"/>
<path d="M5328 10693 c28 -2 76 -2 105 0 28 2 5 3 -53 3 -58 0 -81 -1 -52 -3z"/>
<path d="M5553 10693 c20 -2 54 -2 75 0 20 2 3 4 -38 4 -41 0 -58 -2 -37 -4z"/>
<path d="M7255 10680 c-8 -13 4 -32 16 -25 12 8 12 35 0 35 -6 0 -13 -4 -16
-10z"/>
<path d="M1956 10668 c-4 -9 -3 -24 2 -34 12 -22 21 -5 12 26 -6 21 -8 22 -14
8z"/>
<path d="M7300 10671 c0 -5 5 -13 10 -16 6 -3 10 -2 10 4 0 5 -4 13 -10 16 -5
3 -10 2 -10 -4z"/>
<path d="M7260 10620 c8 -14 8 -26 0 -40 -7 -14 -7 -20 0 -20 5 0 10 8 10 18
0 14 2 15 10 2 8 -12 10 -11 10 8 0 12 -4 22 -10 22 -5 0 -10 7 -10 15 0 8 -5
15 -10 15 -7 0 -7 -6 0 -20z"/>
<path d="M1935 10609 c-4 -13 -14 -31 -21 -40 -8 -8 -28 -44 -45 -80 -16 -35
-35 -72 -40 -83 -7 -11 -7 -22 -1 -28 10 -10 42 48 42 76 0 9 4 16 8 16 5 0
15 16 22 35 9 22 19 34 27 31 7 -3 14 -1 14 4 2 14 5 23 13 42 4 9 3 25 -2 34
-9 15 -10 15 -17 -7z"/>
<path d="M4395 10619 c-4 -6 -5 -12 -2 -15 2 -3 7 2 10 11 7 17 1 20 -8 4z"/>
<path d="M4338 10596 c-26 -19 -22 -26 7 -13 14 7 25 15 25 20 0 11 -13 8 -32
-7z"/>
<path d="M7170 10600 c0 -5 5 -10 10 -10 6 0 10 5 10 10 0 6 -4 10 -10 10 -5
0 -10 -4 -10 -10z"/>
<path d="M7167 10563 c-10 -9 -9 -23 2 -23 5 0 11 7 15 15 5 15 -5 20 -17 8z"/>
<path d="M7310 10515 c0 -8 2 -15 4 -15 2 0 6 7 10 15 3 8 1 15 -4 15 -6 0
-10 -7 -10 -15z"/>
<path d="M7201 10504 c0 -11 3 -14 6 -6 3 7 2 16 -1 19 -3 4 -6 -2 -5 -13z"/>
<path d="M7260 10501 c0 -5 7 -11 14 -14 10 -4 13 -1 9 9 -6 15 -23 19 -23 5z"/>
<path d="M7355 10480 c-3 -5 -1 -10 4 -10 6 0 11 5 11 10 0 6 -2 10 -4 10 -3
0 -8 -4 -11 -10z"/>
<path d="M7280 10445 c0 -8 2 -15 4 -15 2 0 6 7 10 15 3 8 1 15 -4 15 -6 0
-10 -7 -10 -15z"/>
<path d="M7335 10450 c-3 -5 -1 -10 4 -10 6 0 11 5 11 10 0 6 -2 10 -4 10 -3
0 -8 -4 -11 -10z"/>
<path d="M4110 10350 c-6 -12 -9 -24 -7 -27 3 -2 11 5 17 17 6 12 9 24 7 27
-3 2 -11 -5 -17 -17z"/>
<path d="M4295 10340 c-3 -5 1 -10 9 -10 9 0 16 5 16 10 0 6 -4 10 -9 10 -6 0
-13 -4 -16 -10z"/>
<path d="M1806 10324 c-4 -9 -4 -19 -1 -22 2 -3 7 3 11 12 4 9 4 19 1 22 -2 3
-7 -3 -11 -12z"/>
<path d="M1780 10249 c-7 -11 -9 -23 -6 -27 3 -3 6 -1 6 5 0 6 7 13 14 16 11
4 13 1 10 -11 -5 -14 -4 -15 5 -2 6 8 11 21 11 28 0 20 -28 14 -40 -9z"/>
<path d="M7000 10210 c-13 -9 -13 -11 0 -20 18 -11 39 5 24 20 -6 6 -15 6 -24
0z"/>
<path d="M1763 10178 c1 -13 -2 -28 -6 -35 -5 -7 -1 -9 12 -6 11 3 22 12 25
20 4 10 2 13 -8 10 -9 -4 -16 2 -19 14 -4 15 -4 15 -4 -3z"/>
<path d="M4180 10174 c0 -8 5 -12 10 -9 6 4 8 11 5 16 -9 14 -15 11 -15 -7z"/>
<path d="M6978 10175 c-9 -9 4 -55 13 -49 11 7 12 54 1 54 -5 0 -11 -2 -14 -5z"/>
<path d="M7023 10168 c-6 -7 -13 -40 -16 -73 -3 -33 -3 -51 0 -40 3 11 9 22
13 25 6 5 21 100 15 100 -1 0 -7 -6 -12 -12z"/>
<path d="M6896 10065 c4 -8 8 -15 10 -15 2 0 4 7 4 15 0 8 -4 15 -10 15 -5 0
-7 -7 -4 -15z"/>
<path d="M4120 9984 c0 -8 5 -12 10 -9 6 3 10 10 10 16 0 5 -4 9 -10 9 -5 0
-10 -7 -10 -16z"/>
<path d="M3790 9655 c0 -9 5 -15 11 -13 6 2 11 8 11 13 0 5 -5 11 -11 13 -6 2
-11 -4 -11 -13z"/>
<path d="M3830 9659 c0 -5 11 -9 25 -9 14 0 25 2 25 4 0 2 -11 6 -25 8 -14 3
-25 1 -25 -3z"/>
<path d="M4304 9439 c-3 -6 -1 -16 6 -22 10 -9 11 -9 5 2 -4 8 -2 17 6 22 9 6
10 9 2 9 -6 0 -15 -5 -19 -11z"/>
<path d="M6128 9443 c6 -2 18 -2 25 0 6 3 1 5 -13 5 -14 0 -19 -2 -12 -5z"/>
<path d="M5905 9420 c-13 -6 -15 -9 -5 -9 8 0 22 4 30 9 18 12 2 12 -25 0z"/>
<path d="M5848 9413 c7 -3 16 -2 19 1 4 3 -2 6 -13 5 -11 0 -14 -3 -6 -6z"/>
<path d="M5960 9409 c-129 -14 -139 -28 -15 -22 61 3 139 6 175 8 116 4 129 7
65 15 -75 10 -130 9 -225 -1z"/>
<path d="M6488 9413 c7 -3 16 -2 19 1 4 3 -2 6 -13 5 -11 0 -14 -3 -6 -6z"/>
<path d="M6538 9403 c7 -3 16 -2 19 1 4 3 -2 6 -13 5 -11 0 -14 -3 -6 -6z"/>
<path d="M5648 9363 c7 -3 16 -2 19 1 4 3 -2 6 -13 5 -11 0 -14 -3 -6 -6z"/>
<path d="M6198 9363 c7 -3 16 -2 19 1 4 3 -2 6 -13 5 -11 0 -14 -3 -6 -6z"/>
<path d="M6300 9363 c-62 -5 -76 -11 -62 -25 9 -9 15 -9 24 0 7 7 26 12 43 13
16 0 39 4 50 9 11 5 13 8 5 8 -8 -1 -35 -3 -60 -5z"/>
<path d="M5610 9350 c20 -13 33 -13 25 0 -3 6 -14 10 -23 10 -15 0 -15 -2 -2
-10z"/>
<path d="M6445 9350 c-3 -5 -1 -10 4 -10 6 0 11 5 11 10 0 6 -2 10 -4 10 -3 0
-8 -4 -11 -10z"/>
<path d="M6528 9343 c6 -2 18 -2 25 0 6 3 1 5 -13 5 -14 0 -19 -2 -12 -5z"/>
<path d="M5595 9320 c3 -5 8 -10 11 -10 2 0 4 5 4 10 0 6 -5 10 -11 10 -5 0
-7 -4 -4 -10z"/>
<path d="M6400 9300 c0 -5 12 -10 28 -10 21 0 24 2 12 10 -20 13 -40 13 -40 0z"/>
<path d="M5520 9281 c0 -5 -14 -15 -31 -23 -21 -11 -26 -17 -16 -21 8 -3 26 5
40 18 28 23 34 35 17 35 -5 0 -10 -4 -10 -9z"/>
<path d="M5430 9245 c0 -5 5 -17 10 -25 5 -8 10 -10 10 -5 0 6 -5 17 -10 25
-5 8 -10 11 -10 5z"/>
<path d="M6335 9230 c-18 -8 -17 -9 8 -9 15 -1 27 4 27 9 0 12 -8 12 -35 0z"/>
<path d="M5360 9200 c0 -5 5 -10 11 -10 5 0 7 5 4 10 -3 6 -8 10 -11 10 -2 0
-4 -4 -4 -10z"/>
<path d="M6248 9163 c7 -3 16 -2 19 1 4 3 -2 6 -13 5 -11 0 -14 -3 -6 -6z"/>
<path d="M4670 9150 c0 -5 5 -10 10 -10 6 0 10 5 10 10 0 6 -4 10 -10 10 -5 0
-10 -4 -10 -10z"/>
<path d="M4870 9149 c0 -5 5 -7 10 -4 6 3 10 8 10 11 0 2 -4 4 -10 4 -5 0 -10
-5 -10 -11z"/>
<path d="M4918 9123 c7 -3 16 -2 19 1 4 3 -2 6 -13 5 -11 0 -14 -3 -6 -6z"/>
<path d="M4807 9043 c-16 -15 -5 -23 33 -23 29 0 40 4 40 15 0 10 -10 15 -33
15 -19 0 -37 -3 -40 -7z"/>
<path d="M5005 9030 c-8 -13 -1 -24 14 -19 6 3 7 10 2 18 -6 10 -10 10 -16 1z"/>
<path d="M5937 8966 c-3 -8 -3 -17 0 -20 7 -7 33 13 33 25 0 15 -27 10 -33 -5z"/>
<path d="M4970 8960 c-13 -8 -13 -10 2 -10 9 0 20 5 23 10 8 13 -5 13 -25 0z"/>
<path d="M4640 8915 c0 -35 3 -43 15 -39 10 4 15 20 15 45 0 28 -4 39 -15 39
-11 0 -15 -12 -15 -45z"/>
<path d="M4960 8910 c0 -5 12 -10 28 -10 21 0 24 2 12 10 -20 13 -40 13 -40 0z"/>
<path d="M4727 8892 c-16 -18 -16 -18 13 -14 17 2 29 9 27 15 -6 19 -23 18
-40 -1z"/>
<path d="M4928 8853 c6 -2 18 -2 25 0 6 3 1 5 -13 5 -14 0 -19 -2 -12 -5z"/>
<path d="M5115 8800 c-3 -6 1 -7 9 -4 18 7 21 14 7 14 -6 0 -13 -4 -16 -10z"/>
<path d="M1692 8770 c0 -14 2 -19 5 -12 2 6 2 18 0 25 -3 6 -5 1 -5 -13z"/>
<path d="M4545 8780 c-3 -5 -1 -10 4 -10 6 0 11 5 11 10 0 6 -2 10 -4 10 -3 0
-8 -4 -11 -10z"/>
<path d="M5186 8752 c-4 -13 -5 -26 -2 -29 10 -11 18 4 14 29 l-4 23 -8 -23z"/>
<path d="M4338 8563 c12 -2 32 -2 45 0 12 2 2 4 -23 4 -25 0 -35 -2 -22 -4z"/>
<path d="M2395 8519 c-4 -6 -5 -12 -2 -15 2 -3 7 2 10 11 7 17 1 20 -8 4z"/>
<path d="M2580 8520 c0 -5 9 -10 20 -10 11 0 20 5 20 10 0 6 -9 10 -20 10 -11
0 -20 -4 -20 -10z"/>
<path d="M6456 8423 c-4 -11 -1 -22 8 -28 22 -17 16 -56 -11 -66 -13 -5 -23
-13 -23 -18 0 -5 -12 -11 -27 -13 -22 -2 -28 -8 -26 -25 2 -13 -1 -22 -5 -22
-28 5 -52 -3 -52 -17 0 -11 -6 -14 -20 -10 -11 3 -29 9 -40 12 -13 3 -20 1
-20 -9 0 -22 66 -32 85 -13 8 8 28 17 45 21 16 4 30 11 30 16 0 14 28 11 33
-3 2 -8 8 -9 13 -4 5 5 4 11 -3 13 -25 9 -3 63 25 63 6 0 12 7 16 15 3 9 19
15 41 15 19 0 35 5 35 10 0 6 -7 10 -16 10 -10 0 -14 6 -10 15 6 16 -35 32
-52 21 -6 -3 -8 3 -5 14 6 24 -12 27 -21 3z"/>
<path d="M5810 8389 c0 -5 5 -7 10 -4 6 3 10 8 10 11 0 2 -4 4 -10 4 -5 0 -10
-5 -10 -11z"/>
<path d="M6500 8326 c0 -2 7 -6 15 -10 8 -3 15 -1 15 4 0 6 -7 10 -15 10 -8 0
-15 -2 -15 -4z"/>
<path d="M6268 8263 c6 -2 18 -2 25 0 6 3 1 5 -13 5 -14 0 -19 -2 -12 -5z"/>
<path d="M4447 8233 c-12 -11 -8 -23 8 -23 8 0 15 7 15 15 0 16 -12 20 -23 8z"/>
<path d="M5743 8233 c9 -2 17 -8 17 -13 0 -4 10 -11 23 -15 l22 -7 -24 -7
c-22 -6 -15 -11 55 -41 43 -19 81 -37 84 -40 8 -11 68 -29 74 -23 3 4 6 2 6
-4 0 -12 163 -38 186 -29 8 3 12 10 9 16 -3 6 5 10 19 10 13 0 26 -4 28 -9 8
-22 32 -15 32 9 1 33 -9 39 -53 33 -20 -3 -62 2 -93 10 -36 9 -60 11 -64 5 -3
-5 -13 -3 -24 7 -13 11 -20 13 -25 5 -5 -8 -12 -7 -23 3 -10 8 -35 20 -57 27
-22 6 -72 25 -112 41 -39 16 -78 28 -85 28 -7 -1 -5 -3 5 -6z"/>
<path d="M6150 8218 c0 -5 16 -8 35 -8 19 0 35 4 35 9 0 5 -16 9 -35 8 -19 -1
-35 -5 -35 -9z"/>
<path d="M6118 8183 c7 -3 16 -2 19 1 4 3 -2 6 -13 5 -11 0 -14 -3 -6 -6z"/>
<path d="M6188 8183 c7 -3 16 -2 19 1 4 3 -2 6 -13 5 -11 0 -14 -3 -6 -6z"/>
<path d="M1845 8170 c3 -5 8 -10 11 -10 2 0 4 5 4 10 0 6 -5 10 -11 10 -5 0
-7 -4 -4 -10z"/>
<path d="M2100 7620 c0 -5 5 -10 10 -10 6 0 10 5 10 10 0 6 -4 10 -10 10 -5 0
-10 -4 -10 -10z"/>
<path d="M4443 7140 c-12 -5 -26 -17 -32 -27 -6 -10 -11 -12 -11 -5 0 6 -5 12
-11 12 -5 0 -7 -5 -3 -11 5 -8 -3 -10 -26 -7 -22 3 -38 -1 -54 -15 -12 -10
-39 -25 -61 -33 -34 -11 -42 -11 -55 1 -9 8 -25 12 -38 8 -18 -4 -24 -1 -28
14 -3 12 -16 25 -29 31 -20 9 -23 9 -18 -3 4 -11 -3 -15 -25 -15 -30 0 -57 19
-30 21 7 0 4 4 -7 9 -11 4 -24 4 -28 0 -13 -12 20 -137 43 -160 3 -3 12 -18
20 -34 18 -36 115 -136 130 -136 7 0 23 -9 37 -20 14 -11 29 -17 34 -14 5 3
14 2 19 -1 6 -3 83 -8 172 -10 142 -3 164 -6 176 -22 10 -14 14 -15 21 -5 7
11 10 10 15 -3 4 -11 12 -14 25 -10 11 3 22 1 25 -4 4 -6 13 -8 20 -5 7 3 16
-1 19 -8 2 -8 35 -20 71 -28 36 -7 66 -18 66 -23 0 -5 20 -6 48 -3 26 4 67 8
92 10 25 2 56 6 69 10 16 6 27 4 33 -5 7 -10 8 -8 4 6 -5 19 -2 20 34 17 22
-2 40 0 40 6 0 9 91 23 190 27 30 2 63 3 73 4 10 1 15 6 12 11 -4 6 5 10 19
10 14 0 26 4 26 8 0 5 18 17 40 27 22 10 40 22 40 27 0 4 8 8 19 8 13 0 22 12
31 45 7 25 17 48 21 51 5 3 9 14 9 25 0 16 -3 18 -19 9 -26 -13 -31 -13 -31 4
0 14 -48 32 -58 21 -3 -3 2 -5 11 -5 10 0 17 -5 17 -11 0 -6 -6 -9 -12 -6 -7
2 -21 0 -30 -5 -11 -5 -18 -5 -18 1 0 5 -16 27 -36 49 -25 28 -41 38 -55 35
-13 -4 -19 0 -19 11 0 9 -6 16 -14 16 -8 0 -16 4 -18 9 -3 9 -64 14 -157 12
-38 -1 -43 -3 -38 -21 6 -23 -12 -39 -23 -20 -11 18 -130 26 -141 9 -6 -10
-13 -9 -33 4 -30 20 -46 22 -46 5 0 -14 -53 -17 -80 -6 -8 4 -33 9 -55 11 -54
7 -123 25 -154 42 -14 7 -35 16 -46 20 -15 5 -16 8 -6 14 18 12 -8 19 -74 20
-27 1 -57 3 -65 5 -8 3 -25 1 -37 -4z m-103 -60 c0 -5 -4 -10 -10 -10 -5 0
-10 5 -10 10 0 6 5 10 10 10 6 0 10 -4 10 -10z m805 -60 c-3 -5 -10 -10 -16
-10 -5 0 -9 5 -9 10 0 6 7 10 16 10 8 0 12 -4 9 -10z"/>
<path d="M2625 7050 c-3 -5 -1 -10 4 -10 6 0 11 5 11 10 0 6 -2 10 -4 10 -3 0
-8 -4 -11 -10z"/>
<path d="M2640 7015 c0 -16 16 -20 24 -6 3 5 -1 11 -9 15 -9 3 -15 0 -15 -9z"/>
<path d="M5536 6981 c-4 -7 -5 -15 -2 -18 9 -9 19 4 14 18 -4 11 -6 11 -12 0z"/>
<path d="M5665 6960 c-16 -7 -17 -9 -3 -9 9 -1 20 4 23 9 7 11 7 11 -20 0z"/>
<path d="M2852 6741 c13 -21 28 -19 28 5 0 8 -9 14 -20 14 -17 0 -19 -3 -8
-19z"/>
<path d="M2640 6735 c0 -9 -10 -15 -22 -16 l-23 0 23 -11 c25 -13 29 -43 6
-52 -8 -3 -12 -10 -9 -16 4 -6 -6 -10 -22 -10 -18 0 -41 -11 -61 -29 -27 -25
-32 -37 -32 -75 0 -26 -5 -46 -12 -48 -10 -4 -10 -11 -2 -29 15 -34 3 -215
-13 -211 -9 1 -13 -10 -13 -33 0 -32 -3 -35 -37 -41 -21 -4 -32 -9 -26 -11 19
-7 83 17 83 30 0 7 4 6 13 -2 10 -11 10 -14 0 -18 -7 -3 -13 -11 -13 -19 0 -8
-9 -14 -20 -14 -11 0 -20 -4 -20 -10 0 -5 9 -10 20 -10 24 0 26 -21 5 -79 -13
-37 -13 -43 0 -47 21 -9 18 -37 -5 -52 -24 -14 -26 -45 -5 -62 8 -7 15 -27 15
-46 0 -21 6 -37 18 -43 14 -9 14 -12 3 -20 -10 -6 -10 -13 -2 -29 6 -11 11
-29 11 -40 0 -11 8 -30 19 -43 10 -13 16 -30 14 -37 -3 -7 -2 -25 2 -39 5 -21
8 -24 16 -12 6 10 9 7 9 -13 0 -16 5 -28 10 -28 6 0 10 -9 10 -20 0 -11 7 -23
15 -26 8 -4 15 -12 15 -20 0 -8 -7 -14 -15 -14 -11 0 -15 -12 -15 -44 0 -30 5
-46 15 -50 20 -7 19 -26 -1 -26 -9 0 -18 -9 -21 -20 -3 -11 -7 -20 -10 -20 -6
0 -56 59 -70 84 -8 14 -12 16 -13 6 0 -13 -1 -13 -10 0 -18 29 -27 -3 -37
-125 -3 -38 -8 -72 -13 -75 -23 -16 -54 -219 -34 -227 17 -6 14 -113 -3 -113
-7 0 -13 -7 -13 -15 0 -8 5 -15 12 -15 6 0 4 -7 -5 -18 -10 -10 -17 -28 -17
-40 0 -23 -50 -77 -80 -87 -10 -3 -20 -16 -22 -28 -2 -17 -10 -22 -33 -22 -22
0 -29 4 -26 15 14 51 13 70 -3 70 -12 0 -15 -6 -10 -25 3 -14 2 -25 -4 -25 -5
0 -12 15 -16 33 -5 23 -9 28 -15 18 -5 -8 -16 -11 -26 -7 -12 4 -18 0 -22 -14
-3 -11 -11 -20 -18 -20 -14 0 -29 -71 -16 -80 15 -9 -8 -50 -27 -50 -21 0 -46
23 -36 33 10 10 33 115 26 121 -3 3 -11 1 -18 -5 -7 -6 -14 -6 -18 -1 -3 6 0
12 8 15 9 4 12 14 9 26 -4 18 -11 14 -54 -30 -57 -56 -74 -62 -65 -21 4 15 9
44 13 65 3 20 9 37 14 37 4 0 11 17 14 38 9 53 24 100 46 149 10 24 19 47 19
53 0 5 4 10 9 10 5 0 12 16 15 35 8 40 43 105 57 105 5 0 9 10 9 22 0 12 7 30
17 40 22 25 12 31 -23 13 -16 -8 -35 -15 -42 -15 -7 0 -11 -4 -8 -8 3 -4 -10
-9 -27 -9 -18 -1 -50 -11 -72 -22 -21 -12 -46 -21 -55 -21 -9 0 -20 -4 -26 -8
-12 -12 -127 -52 -146 -52 -8 0 -23 -9 -33 -20 -10 -11 -24 -20 -32 -20 -19 0
-55 -39 -47 -51 3 -6 -1 -18 -9 -27 -15 -17 -19 -49 -33 -257 -8 -120 -25
-256 -70 -555 -33 -220 -34 -227 -45 -285 -5 -27 -13 -81 -18 -120 -6 -38 -17
-106 -27 -150 -9 -44 -18 -89 -20 -100 -1 -11 -3 -20 -4 -20 -1 0 -3 -11 -6
-25 -2 -14 -16 -60 -29 -102 -14 -43 -32 -106 -41 -140 -8 -35 -19 -79 -24
-98 -6 -22 -5 -36 0 -38 15 -6 12 -22 -4 -22 -8 0 -14 -8 -14 -17 1 -18 -10
-63 -43 -183 -9 -36 -22 -90 -27 -120 -6 -30 -15 -73 -21 -95 -7 -29 -7 -43 2
-54 10 -12 9 -14 -5 -9 -19 8 -23 -3 -23 -57 2 -114 4 -125 25 -125 17 0 20 7
20 40 0 22 -5 40 -11 40 -5 0 -7 4 -4 10 4 6 13 5 25 -2 16 -10 22 -8 38 12
20 24 20 40 1 40 -5 0 -9 -9 -9 -20 0 -11 -4 -20 -10 -20 -15 0 -12 47 4 53
15 6 46 88 46 123 0 13 8 28 18 33 14 9 12 11 -13 12 -20 1 -23 3 -10 6 12 2
26 12 33 23 12 20 7 50 -9 50 -5 0 -9 10 -9 23 0 14 3 18 8 10 12 -19 35 1 28
24 -4 13 0 25 9 33 8 7 13 21 10 30 -3 9 1 23 10 30 10 9 12 17 5 30 -7 14 -6
23 6 34 8 9 12 21 8 27 -4 7 -3 9 3 6 13 -8 24 52 26 135 2 47 5 58 21 62 13
3 17 11 13 26 -3 13 0 23 9 27 8 3 14 11 14 19 0 8 5 14 10 14 6 0 10 -5 10
-11 0 -6 6 -57 14 -113 22 -153 26 -206 50 -631 9 -150 7 -300 -4 -405 -7 -58
-13 -121 -14 -140 -4 -50 -17 -170 -23 -205 -3 -16 -6 -55 -8 -85 -1 -30 -7
-80 -13 -110 -6 -30 -16 -109 -23 -175 -6 -66 -15 -154 -19 -195 -5 -41 -16
-140 -24 -220 -8 -80 -17 -158 -20 -175 -8 -58 -25 -201 -36 -305 -6 -58 -15
-130 -20 -161 -6 -30 -10 -75 -10 -100 0 -24 -7 -93 -15 -154 -8 -60 -15 -118
-15 -127 0 -16 13 -18 136 -18 l136 0 -6 38 c-17 113 -7 209 35 324 24 65 29
68 147 68 l84 0 -7 -97 c-7 -106 -17 -124 -60 -115 -20 3 -25 10 -25 33 0 22
-5 29 -20 29 -53 0 -67 -118 -20 -172 46 -54 154 -45 209 17 25 29 31 44 31
84 0 51 -21 106 -45 115 -10 3 -15 19 -15 44 0 56 20 69 98 64 59 -4 62 -5 63
-30 2 -52 -3 -87 -14 -94 -7 -4 -6 -24 2 -65 12 -58 11 -118 -3 -141 -4 -7 -5
-12 -2 -12 3 0 -1 -19 -9 -41 -8 -23 -15 -43 -15 -45 0 -2 387 -4 859 -4 678
0 860 3 864 13 4 8 6 7 7 -3 1 -8 8 5 16 30 l13 45 -4 -45 c-4 -33 -2 -39 4
-25 8 17 10 18 10 3 1 -10 5 -18 11 -18 5 0 8 6 6 13 -13 41 -16 68 -7 62 6
-3 8 0 5 8 -3 8 -14 17 -24 20 -14 4 -18 14 -18 50 1 26 5 44 10 41 4 -3 8 6
8 20 0 15 5 25 12 24 14 -3 17 14 25 148 4 71 0 133 -12 205 -20 126 -51 276
-70 344 -82 286 -111 344 -195 393 -37 22 -57 27 -115 27 -38 0 -82 -3 -97 -8
-25 -7 -29 -4 -44 30 -8 21 -24 74 -35 118 -10 44 -25 100 -34 125 -66 202
-176 755 -190 960 -4 47 -10 101 -15 120 -5 19 -11 60 -15 90 -4 30 -20 107
-37 170 -56 220 -55 235 15 144 41 -53 147 -204 147 -209 0 -3 102 -116 145
-159 52 -52 185 -171 198 -176 17 -7 91 -63 95 -72 2 -5 8 -8 14 -8 5 0 22 -8
36 -19 39 -27 202 -113 202 -106 0 3 14 -2 32 -11 37 -19 70 -30 148 -49 30
-8 82 -21 115 -29 137 -35 301 -49 490 -41 242 10 239 10 274 24 16 7 36 11
43 8 7 -2 20 -1 28 4 9 4 36 10 60 14 46 7 116 26 183 51 20 8 59 19 85 24 47
11 153 50 162 60 3 4 21 12 40 20 19 7 44 22 56 32 25 23 34 23 34 1 0 -15 4
-13 20 7 10 14 22 21 26 17 4 -4 3 -7 -3 -7 -5 0 -19 -19 -29 -42 -20 -46 -53
-85 -68 -80 -5 2 -6 -5 -2 -14 8 -22 -11 -44 -32 -37 -14 5 -15 3 -4 -8 20
-22 14 -29 -20 -23 -30 5 -31 4 -15 -9 17 -14 14 -47 -5 -47 -5 0 -14 -14 -19
-30 -6 -17 -18 -31 -27 -32 -28 -3 -56 -5 -76 -7 -16 -1 -17 -4 -8 -13 10 -10
15 -10 22 2 8 13 10 12 10 -3 0 -14 5 -17 20 -12 11 3 20 4 20 1 0 -7 -31 -62
-61 -108 -62 -95 -99 -157 -99 -166 0 -6 -4 -12 -8 -14 -8 -3 -36 -49 -161
-271 -34 -59 -149 -247 -172 -279 -10 -15 -19 -34 -19 -43 0 -8 -4 -15 -9 -15
-5 0 -13 -10 -17 -22 -4 -13 -19 -41 -34 -63 -15 -22 -33 -55 -41 -72 -8 -18
-17 -33 -20 -33 -4 0 -16 -22 -28 -49 -11 -28 -25 -53 -31 -56 -5 -3 -20 -27
-34 -53 -13 -26 -42 -82 -64 -125 -22 -43 -46 -86 -54 -95 -8 -9 -21 -33 -28
-52 -8 -19 -26 -55 -41 -80 -26 -44 -80 -139 -133 -230 -14 -25 -35 -63 -47
-85 -12 -22 -25 -42 -29 -45 -4 -3 -18 -24 -30 -48 -12 -23 -26 -42 -31 -42
-5 0 -9 -8 -9 -19 0 -10 -7 -24 -15 -31 -8 -7 -15 -16 -15 -21 0 -5 276 -9
633 -8 347 0 626 3 620 6 -14 5 -18 63 -5 63 4 0 13 14 21 32 11 24 11 33 3
36 -17 5 -15 22 3 22 15 0 38 67 28 83 -3 5 4 6 17 2 l23 -7 -22 23 c-26 29
-27 42 -1 34 24 -7 28 13 5 22 -14 5 -14 8 2 25 10 11 16 32 15 50 -1 17 3 37
9 44 6 8 14 43 17 79 3 48 9 65 19 65 10 0 13 6 9 15 -3 9 1 18 10 22 13 5 13
7 2 14 -10 7 -10 9 0 9 8 0 12 22 12 76 0 62 -3 79 -17 90 -15 10 -16 15 -5
26 11 11 14 10 21 -1 6 -9 11 -10 15 -2 4 6 0 22 -9 35 -10 16 -15 41 -14 66
2 26 -2 44 -10 49 -10 6 -9 10 3 14 18 7 22 43 6 49 -6 2 -13 21 -15 43 l-5
40 14 -40 c13 -38 14 -38 15 -11 1 16 8 34 17 40 12 9 14 21 9 49 -6 33 -25
53 -25 27 0 -5 -4 -10 -10 -10 -5 0 -10 7 -10 16 0 8 5 12 10 9 6 -3 10 -1 10
5 0 7 6 8 19 0 26 -13 31 -13 31 4 0 9 -12 16 -27 18 -38 4 -43 34 -6 33 24 0
28 4 30 30 1 20 0 23 -4 7 -5 -23 -18 -29 -28 -11 -9 14 14 69 29 69 6 0 5 4
-3 9 -7 5 -10 14 -6 20 5 9 10 9 21 0 12 -10 13 -9 8 5 -3 9 -9 16 -13 16 -10
0 24 137 37 153 5 7 12 28 15 47 3 19 20 82 37 140 17 58 36 130 42 160 6 30
14 59 19 65 5 5 9 19 9 31 0 12 9 51 20 86 20 60 52 182 134 503 20 77 40 149
45 160 5 11 27 74 49 140 22 66 48 138 58 160 10 22 19 47 20 55 4 28 57 165
67 171 6 4 5 9 -1 13 -6 3 -18 -4 -26 -16 -20 -28 -21 -5 -2 25 8 12 17 38 19
58 5 45 15 62 33 55 8 -3 14 -1 14 4 0 6 -10 10 -22 10 -13 0 -18 4 -13 8 13
9 7 132 -6 132 -10 0 -12 70 -3 94 3 9 12 16 19 16 7 0 16 6 18 13 3 6 6 1 6
-12 1 -13 -2 -21 -6 -18 -3 4 -13 -2 -21 -14 -17 -25 -6 -41 12 -17 17 24 26
12 26 -34 0 -26 -4 -37 -11 -32 -6 3 -8 17 -4 31 5 23 4 24 -10 10 -16 -17
-20 -37 -6 -37 5 0 12 -30 16 -67 6 -59 9 -65 17 -43 30 73 59 306 61 487 2
121 0 143 -13 143 -13 0 -14 -14 -10 -88 6 -103 1 -242 -8 -242 -4 0 -6 23 -5
52 1 35 -1 48 -7 38 -6 -8 -10 -24 -10 -35 0 -11 -11 -30 -25 -43 -19 -18 -23
-30 -18 -53 4 -20 1 -29 -7 -29 -9 0 -11 12 -6 48 4 26 9 65 11 87 8 90 17
140 26 152 7 8 7 18 0 32 -6 11 -11 66 -11 123 0 75 -4 110 -14 124 -17 22
-15 26 -41 -81 -10 -38 -22 -74 -26 -79 -5 -6 -9 -23 -9 -38 0 -18 -5 -28 -15
-28 -8 0 -15 -4 -15 -10 0 -5 -4 -10 -10 -10 -5 0 -10 10 -10 23 0 29 -19 57
-27 40 -6 -15 -43 -17 -43 -3 0 6 -4 10 -10 10 -14 0 -12 -27 3 -34 10 -5 10
-7 0 -12 -7 -3 -13 -12 -13 -20 0 -8 -7 -14 -15 -14 -8 0 -15 -5 -15 -11 0 -5
-4 -7 -10 -4 -16 10 -12 47 7 68 17 18 17 19 0 32 -9 6 -17 19 -17 28 0 17
-18 33 -26 24 -3 -3 -1 -14 5 -25 8 -16 7 -21 -5 -26 -10 -4 -13 -13 -9 -26 7
-23 2 -25 -26 -9 -11 5 -30 7 -42 3 -22 -7 -22 -8 3 -14 15 -4 24 -13 24 -23
-1 -10 8 -20 22 -23 13 -3 24 -10 24 -15 0 -17 -40 -9 -60 11 -17 17 -23 18
-40 8 -15 -10 -22 -10 -32 0 -11 11 -10 12 3 7 12 -4 18 1 21 20 3 14 1 28 -3
31 -5 3 -9 0 -9 -5 0 -18 -18 -12 -23 7 -3 10 -5 6 -6 -11 0 -16 -5 -26 -9
-23 -13 8 -1 66 14 66 7 0 15 -4 19 -9 3 -6 15 -9 26 -8 19 1 21 6 16 46 -3
24 -1 38 3 32 10 -18 20 11 20 59 0 33 3 37 20 33 16 -4 20 0 20 18 0 13 -7
33 -15 43 -19 25 -19 46 0 46 9 0 15 -9 15 -25 0 -14 7 -28 16 -32 23 -9 84
26 88 51 7 38 2 64 -11 59 -7 -3 -13 1 -12 8 1 20 17 57 18 42 1 -7 8 -13 16
-13 8 0 15 -9 15 -20 0 -11 5 -20 10 -20 6 0 10 5 10 11 0 6 7 9 15 5 9 -3 15
0 15 10 0 8 -4 13 -9 10 -16 -10 -41 5 -41 25 0 15 -7 19 -35 19 -34 0 -35 -1
-35 -40 0 -53 -14 -51 -27 5 l-10 45 38 0 c28 0 39 4 39 15 0 11 -11 15 -40
15 -33 0 -40 3 -40 19 0 11 8 22 18 25 9 3 -16 4 -55 2 -57 -3 -73 0 -73 10 0
8 -4 14 -10 14 -5 0 -10 -7 -10 -15 0 -21 -30 -19 -31 3 0 12 -2 13 -6 3 -15
-39 -41 -50 -98 -44 l-57 6 2 -59 c3 -86 4 -84 -40 -84 -31 0 -40 -4 -40 -17
0 -15 -2 -16 -10 -3 -6 10 -6 16 0 18 6 2 10 10 10 18 0 10 -12 14 -40 14 -28
0 -40 -4 -40 -14 0 -8 4 -16 10 -18 5 -2 6 -9 1 -17 -7 -10 -11 -5 -16 18 -6
30 -34 44 -36 19 -1 -7 -2 -17 -4 -23 -1 -5 -3 -19 -4 -30 -2 -16 -5 -14 -13
10 -10 26 -12 27 -18 10 -6 -18 -8 -17 -22 9 -10 18 -18 25 -22 17 -4 -6 -21
-11 -37 -11 -17 0 -32 -6 -35 -15 -4 -10 -17 -14 -37 -13 -17 1 -32 -3 -35
-10 -2 -6 -8 -12 -13 -12 -6 0 -8 4 -4 9 3 6 -4 15 -15 21 -18 9 -20 8 -20
-14 0 -27 -27 -41 -57 -32 -10 3 -25 1 -33 -4 -12 -8 -10 -10 8 -10 13 0 21
-4 18 -9 -3 -5 -15 -7 -26 -4 -12 3 -29 -2 -40 -12 -20 -18 -21 -17 -45 5 -24
23 -25 23 -45 5 -11 -10 -20 -13 -20 -7 0 8 -7 9 -26 2 -45 -17 -65 -12 -77
20 -12 31 -27 40 -27 16 0 -8 -9 -24 -21 -37 l-20 -24 5 25 c3 14 3 19 0 13
-3 -7 -12 -13 -20 -13 -8 0 -14 6 -14 13 -1 30 -19 41 -69 38 -30 -1 -51 2
-51 9 0 5 -20 10 -45 10 -31 0 -47 -5 -54 -18 -9 -14 -10 -11 -11 16 0 25 -4
32 -19 32 -11 0 -21 -6 -24 -12 -2 -7 -4 2 -5 21 0 18 -4 36 -7 40 -4 3 -40 5
-81 4 -60 -2 -74 0 -74 12 0 8 -5 15 -11 15 -7 0 -18 8 -25 18 -12 16 -14 16
-28 -3 -10 -13 -15 -15 -16 -6 0 7 -12 25 -27 39 -26 24 -26 26 -8 32 19 7 18
7 -4 19 -12 7 -29 10 -38 7 -10 -4 -18 4 -26 24 -8 21 -18 30 -34 30 -20 0
-23 5 -23 39 0 23 -5 41 -12 44 -10 3 -10 7 0 20 11 13 10 18 -11 32 -13 8
-32 13 -41 9 -13 -5 -16 0 -15 27 1 24 3 27 6 12 6 -33 27 -28 41 10 15 41 15
47 2 47 -5 0 -10 -7 -10 -15 0 -8 -6 -15 -14 -15 -16 0 -26 30 -26 78 0 22 -5
32 -15 32 -9 0 -15 9 -15 24 0 13 -7 29 -15 36 -19 16 -3 40 26 40 12 0 19 7
19 20 0 13 -7 20 -19 20 -11 0 -23 5 -26 10 -4 6 5 10 19 10 14 0 26 5 26 10
0 6 -18 10 -40 10 -33 0 -40 3 -40 20 0 16 -5 19 -23 15 -15 -4 -28 -1 -36 9
-12 14 -9 16 23 16 20 0 36 -4 36 -10 0 -5 18 -10 40 -10 33 0 40 3 40 20 0
17 -3 18 -19 9 -11 -7 -26 -9 -37 -4 -11 5 -23 7 -28 6 -4 -1 -14 3 -22 10 -8
6 -23 9 -34 6 -16 -4 -20 0 -20 20 0 19 4 23 18 19 9 -3 24 -1 32 4 11 7 7 10
-17 10 -21 0 -33 5 -33 14 0 7 -9 20 -20 27 -11 8 -23 25 -25 38 -8 42 -30 45
-33 6 -2 -19 -6 -35 -10 -35 -21 0 -42 44 -43 89 -1 31 -7 52 -16 55 -7 3 -13
1 -13 -5 0 -6 -8 -6 -21 1 -19 11 -20 13 -4 30 10 11 25 16 38 13 13 -3 18 -1
12 4 -10 8 -31 38 -42 62 -3 7 0 17 8 21 7 5 10 13 5 17 -5 4 -11 2 -13 -4 -8
-22 -31 -14 -38 14 -4 18 -2 29 8 34 10 6 12 21 7 60 -4 29 -4 69 0 90 4 22 3
39 -1 39 -20 0 -7 43 22 71 33 32 80 37 107 12 7 -7 33 -13 57 -13 25 0 45 -5
48 -12 4 -10 8 -10 15 1 11 15 44 8 83 -20 14 -10 29 -15 33 -12 4 4 4 0 0
-10 -4 -12 -1 -17 11 -17 9 0 14 -4 10 -9 -5 -8 17 -20 50 -27 34 -7 65 -26
65 -39 0 -8 5 -15 10 -15 6 0 10 -8 10 -19 0 -14 10 -21 36 -25 19 -4 38 -14
41 -22 3 -7 14 -14 25 -14 11 0 26 -7 34 -15 9 -8 22 -15 30 -15 8 0 14 7 14
15 0 23 37 18 43 -5 3 -11 9 -20 14 -19 18 3 33 -2 33 -11 0 -5 -7 -10 -15
-10 -8 0 -15 -4 -15 -10 0 -5 9 -10 20 -10 13 0 24 -10 30 -25 13 -33 30 -32
30 3 l1 27 15 -27 c18 -35 31 -35 46 -3 7 15 19 25 32 25 19 -1 19 -2 4 -11
-22 -12 -24 -48 -3 -55 26 -10 4 -26 -29 -20 -38 7 -69 -9 -46 -23 12 -9 12
-11 -3 -17 -25 -9 -21 -23 9 -30 19 -5 23 -9 14 -18 -8 -8 -13 -7 -20 4 -5 8
-13 11 -17 6 -4 -5 -2 -11 5 -13 6 -3 12 -12 12 -20 0 -9 8 -22 18 -29 11 -9
13 -13 4 -14 -7 0 -20 7 -28 15 -21 21 -94 20 -94 -1 0 -9 -11 -25 -25 -36
-32 -25 -32 -34 5 -46 26 -9 33 -7 58 16 16 15 31 34 35 42 4 11 6 10 6 -5 1
-41 -11 -61 -42 -71 -45 -13 -45 -32 -1 -40 25 -5 39 -3 42 5 2 6 10 11 18 11
8 0 14 7 14 15 0 9 9 15 25 15 14 0 25 -4 25 -9 0 -5 8 -12 18 -14 16 -4 16
-5 0 -6 -10 0 -18 -5 -18 -11 0 -5 -7 -10 -15 -10 -22 0 -18 -37 4 -50 38 -20
121 -8 121 17 0 10 6 12 23 7 12 -3 24 -11 25 -15 6 -14 32 -10 38 5 3 8 21
14 42 15 20 1 72 2 115 4 43 1 81 -1 83 -5 3 -4 -4 -8 -15 -8 -12 0 -21 -5
-21 -10 0 -6 10 -8 24 -4 13 3 27 1 30 -5 11 -16 66 -14 66 3 0 20 26 27 56
16 34 -13 47 -13 38 2 -5 7 -1 9 13 6 11 -3 28 1 38 8 24 18 35 18 35 -1 0 -8
5 -15 10 -15 6 0 10 11 10 25 0 22 2 24 19 13 16 -10 25 -9 44 1 29 16 47 8
47 -20 0 -10 5 -19 10 -19 6 0 10 9 10 19 0 26 110 88 111 63 0 -12 3 -10 9 6
5 12 17 23 27 24 10 0 23 2 30 2 6 1 15 5 20 10 4 5 3 6 -4 2 -7 -4 -17 2 -23
14 -9 16 -8 20 5 20 23 0 18 20 -12 49 -23 21 -25 26 -11 29 13 3 35 32 26 36
-2 1 -18 9 -35 18 -32 17 -33 17 -33 -4 0 -20 -4 -20 -61 -14 -34 3 -70 6 -80
6 -11 0 -19 5 -19 10 0 6 19 10 42 10 54 0 46 7 -12 11 -42 3 -45 2 -45 -21 0
-24 -2 -25 -75 -24 -45 1 -78 -3 -83 -10 -5 -7 -13 -5 -23 9 -10 12 -18 15
-21 9 -2 -6 -11 -20 -19 -30 -9 -10 -13 -14 -10 -8 4 7 -7 11 -31 10 -36 -1
-36 0 -37 38 -1 26 -6 41 -16 43 -13 4 -13 3 0 -6 13 -9 12 -12 -5 -25 -12 -9
-15 -15 -7 -16 19 0 4 -20 -15 -20 -10 0 -13 6 -9 17 9 23 -11 33 -69 34 -34
0 -44 3 -31 8 15 6 16 10 7 16 -12 7 -23 -2 -35 -30 -3 -6 -9 -3 -15 5 -10 13
-12 13 -21 0 -8 -12 -11 -13 -19 -1 -7 11 -9 11 -13 0 -4 -10 -8 -11 -19 -3
-8 6 -33 11 -56 12 -44 1 -113 28 -113 43 0 9 17 13 35 9 76 -18 75 -18 75 1
0 10 -7 19 -15 19 -9 0 -25 9 -37 20 -12 11 -28 20 -35 20 -7 0 -13 7 -13 15
0 8 5 15 10 15 6 0 10 -5 10 -12 0 -6 2 -9 5 -6 3 3 3 13 -1 22 -5 12 -19 16
-60 16 -32 0 -56 5 -61 13 -10 16 -59 47 -74 47 -7 0 -21 -7 -31 -17 -11 -9
-18 -11 -18 -5 0 7 -6 12 -14 12 -7 0 -19 7 -26 15 -7 8 -25 15 -41 15 -30 0
-63 26 -53 41 3 6 -2 16 -11 23 -15 11 -15 13 -1 25 9 8 16 19 16 27 0 19 38
37 64 29 11 -3 87 -8 169 -11 81 -2 169 -9 195 -15 26 -6 116 -12 201 -15 84
-2 157 -7 161 -9 5 -3 30 0 57 5 63 14 112 20 203 26 41 2 86 7 100 10 14 3
54 8 90 10 36 2 103 9 148 15 76 11 87 11 118 -6 27 -15 36 -16 49 -5 10 8 15
9 15 1 0 -6 9 -11 19 -11 24 0 36 -16 19 -23 -8 -4 -4 -8 9 -12 13 -4 20 -11
17 -16 -3 -5 6 -9 20 -9 14 0 26 4 26 9 0 8 22 13 105 25 17 3 63 7 104 9 54
4 76 9 83 21 10 18 78 23 78 6 0 -5 12 -10 26 -10 18 0 25 -4 21 -14 -3 -8 3
-22 13 -31 17 -16 18 -19 4 -41 -21 -30 -14 -53 8 -30 9 9 20 16 23 16 14 0 0
-126 -17 -158 -10 -18 -16 -38 -12 -43 3 -5 -2 -21 -11 -35 -9 -14 -14 -32
-11 -40 3 -9 -4 -16 -19 -20 -26 -6 -34 -21 -12 -21 7 0 25 -3 40 -7 22 -5 27
-3 27 13 0 11 6 22 13 24 10 4 10 6 0 6 -21 1 -15 21 6 21 28 0 57 48 42 72
-15 24 -14 43 3 57 12 10 15 6 18 -26 3 -33 6 -38 31 -41 l29 -4 -7 -79 c-6
-69 -5 -79 9 -79 19 0 22 -26 4 -33 -7 -2 -9 -8 -5 -13 5 -5 18 2 29 16 18 22
18 25 4 28 -20 4 -23 78 -3 85 10 4 10 6 0 6 -16 1 -18 71 -2 71 6 0 9 8 7 18
-2 9 -10 17 -18 17 -8 0 -17 11 -21 25 -11 40 -10 115 2 127 9 9 6 20 -11 44
-19 26 -21 35 -12 50 10 15 9 21 -7 30 -11 7 -16 19 -13 31 2 10 -1 18 -7 18
-6 0 -10 10 -10 23 1 12 -2 30 -6 40 -4 9 -3 17 3 17 5 0 13 -10 17 -22 4 -15
8 -19 12 -10 3 8 0 19 -6 25 -6 6 -11 19 -11 29 0 10 -7 18 -16 18 -13 0 -14
3 -5 13 8 10 7 17 -1 25 -9 9 -9 12 0 12 21 0 13 18 -10 23 l-23 4 23 2 c27 1
28 9 5 27 -17 13 -17 13 0 14 9 0 17 -3 17 -8 0 -4 18 -7 40 -7 22 0 40 2 40
5 0 11 -25 38 -40 43 -8 3 -3 6 13 6 34 1 35 15 2 37 -14 9 -25 23 -25 30 0
17 -17 18 -23 2 -3 -10 -9 -10 -26 0 -11 6 -28 12 -37 12 -14 0 -14 3 -4 15
11 13 11 18 0 28 -10 9 -13 9 -17 0 -3 -8 -22 -13 -44 -13 -28 0 -39 -4 -39
-15 0 -8 -8 -15 -18 -15 -13 0 -18 -8 -17 -26 0 -29 -34 -59 -42 -36 -7 17
-43 15 -65 -5 -17 -15 -18 -15 -18 0 0 24 -17 21 -47 -9 -22 -22 -30 -25 -45
-15 -26 16 -35 14 -41 -10 -3 -12 -10 -18 -16 -14 -6 3 -19 2 -28 -4 -17 -9
-17 -10 0 -16 9 -4 17 -13 17 -20 0 -7 -8 -16 -17 -20 -16 -7 -15 -9 6 -14 14
-4 26 -12 28 -18 5 -14 -45 -49 -54 -39 -4 4 3 9 15 13 27 7 29 23 2 23 -11 0
-20 -4 -20 -10 0 -5 -9 -10 -21 -10 -11 0 -18 -4 -15 -9 7 -11 -29 -4 -61 11
-12 6 -33 8 -48 6 -14 -3 -28 -1 -31 3 -3 5 -14 9 -24 9 -10 0 -33 8 -52 17
-62 31 -68 33 -93 33 -16 0 -25 -6 -25 -15 0 -9 -9 -15 -21 -15 -16 0 -20 5
-16 20 5 19 -20 57 -30 46 -11 -10 -4 -77 9 -93 10 -13 10 -17 1 -20 -7 -3
-13 -9 -13 -15 0 -6 6 -6 15 2 12 10 18 10 30 0 31 -25 7 -57 -32 -43 -10 3
-26 13 -36 21 -16 14 -18 13 -29 -15 -11 -29 -13 -30 -57 -25 -25 3 -48 8 -51
12 -9 12 -69 32 -78 26 -6 -3 -13 2 -17 11 -3 10 -1 19 4 21 6 2 11 12 11 23
0 21 15 25 26 7 14 -23 34 25 33 81 l-1 56 -10 -42 c-10 -48 -17 -52 -36 -23
-7 11 -17 20 -23 20 -8 0 -8 -4 0 -14 9 -10 8 -15 -4 -20 -10 -3 -15 -19 -15
-46 0 -29 -4 -40 -15 -40 -11 0 -15 11 -15 39 0 35 -3 39 -32 45 -36 7 -53 -2
-20 -11 25 -6 30 -23 7 -23 -8 0 -15 -4 -15 -10 0 -5 7 -10 15 -10 18 0 20
-20 3 -21 -77 -7 -78 -7 -78 12 0 22 17 34 23 17 2 -7 8 -9 13 -5 15 14 -17
25 -95 32 -42 4 -78 10 -81 15 -11 17 -134 50 -185 50 -32 0 -55 4 -55 11 0 5
-10 3 -22 -5 -25 -18 -58 -21 -58 -6 0 12 -40 13 -56 2 -6 -4 -13 -15 -17 -24
-4 -12 -16 -17 -34 -17 l-28 2 28 4 c32 5 36 23 5 23 -26 -1 -114 -23 -122
-31 -3 -3 -45 -4 -93 -2 -53 2 -83 0 -75 -5 22 -15 -15 -24 -65 -16 -49 7 -54
16 -18 32 14 7 28 19 31 27 4 8 15 15 25 15 10 0 19 5 19 10 0 6 -4 10 -10 10
-5 0 -10 18 -10 40 0 22 -4 40 -10 40 -5 0 -10 -18 -10 -40 0 -22 -4 -40 -10
-40 -5 0 -10 18 -10 40 0 22 -4 40 -9 40 -5 0 -7 10 -5 23 l5 22 -10 -22 c-7
-15 -19 -23 -35 -23 -14 0 -29 -7 -34 -16 -8 -14 -10 -14 -21 0 -11 13 -11 16
0 16 8 1 3 7 -10 14 l-24 14 24 7 24 8 -25 9 c-14 5 -43 9 -66 10 -51 0 -67 8
-53 28 8 11 12 12 16 3 2 -7 12 -13 20 -13 11 0 9 6 -8 25 -21 21 -26 22 -35
10 -10 -13 -15 -12 -35 8 -13 13 -29 32 -35 43 -9 14 -15 16 -23 8 -14 -13
-80 14 -81 33 0 15 -77 21 -109 8 -18 -7 -26 -5 -37 10 -8 10 -14 14 -14 8 0
-7 -23 -11 -60 -10 -32 0 -57 4 -54 8 2 4 -15 6 -38 5 -24 -2 -35 -2 -25 1 37
10 16 28 -33 30 -28 0 -56 5 -63 11 -7 5 -21 12 -32 15 -11 2 1 5 27 6 75 2
70 30 -5 32 -30 0 -31 1 -9 10 15 5 30 5 42 -1 26 -14 52 -12 75 7 18 14 18
15 2 9 -10 -3 -50 -3 -89 1 -57 5 -72 10 -76 25 -6 23 -20 24 -18 1 2 -26 -58
-24 -62 1 -3 14 0 17 13 13 9 -4 14 -3 10 3 -8 13 -166 5 -174 -9 -11 -17 -78
-41 -116 -41 -31 0 -35 3 -35 25 0 20 -5 25 -25 25 -14 0 -25 4 -25 9 0 5 -7
11 -15 15 -9 3 -15 0 -15 -9z m477 -72 c-10 -9 -77 -10 -77 -1 0 4 19 8 42 8
23 0 38 -3 35 -7z m-577 -143 c0 -22 -4 -40 -10 -40 -5 0 -10 18 -10 40 0 22
5 40 10 40 6 0 10 -18 10 -40z m687 14 c-3 -3 -12 -4 -19 -1 -8 3 -5 6 6 6 11
1 17 -2 13 -5z m533 -144 c0 -5 -7 -10 -15 -10 -8 0 -15 5 -15 10 0 6 7 10 15
10 8 0 15 -4 15 -10z m2466 -95 c-11 -8 -25 -15 -30 -15 -6 0 -2 7 8 15 11 8
25 15 30 15 6 0 2 -7 -8 -15z m-346 -126 c0 -5 -7 -9 -15 -9 -15 0 -20 12 -9
23 8 8 24 -1 24 -14z m-1240 1 c0 -5 -4 -10 -10 -10 -5 0 -7 -7 -3 -16 3 -10
9 -12 15 -6 10 10 78 -6 78 -19 0 -4 -11 -10 -24 -13 -13 -3 -31 -9 -40 -12
-11 -4 -16 0 -16 12 0 17 -1 17 -13 -1 -16 -21 -26 -11 -29 29 -3 31 -6 32
-24 9 -12 -16 -13 -15 -14 10 0 25 3 27 40 27 22 0 40 -4 40 -10z m150 -14 c0
-11 -19 -15 -25 -6 -3 5 1 10 9 10 9 0 16 -2 16 -4z m90 -26 c0 -5 -10 -10
-22 -10 -19 0 -20 2 -8 10 19 13 30 13 30 0z m44 -16 c8 -20 -1 -34 -20 -34
-8 0 -14 8 -14 18 0 33 23 44 34 16z m-44 -23 c0 -6 -17 -7 -37 -4 -52 8 -54
13 -5 13 23 0 42 -4 42 -9z m-183 -17 c-3 -3 -12 -4 -19 -1 -8 3 -5 6 6 6 11
1 17 -2 13 -5z m183 -14 c0 -5 -12 -10 -27 -10 -22 0 -25 2 -13 10 20 13 40
13 40 0z m-320 -70 c0 -5 -7 -7 -15 -4 -8 4 -15 8 -15 10 0 2 7 4 15 4 8 0 15
-4 15 -10z m680 7 c0 -2 -9 -12 -20 -22 -19 -18 -20 -17 -20 3 0 15 6 22 20
22 11 0 20 -2 20 -3z m-205 -77 c-3 -5 -14 -10 -23 -10 -15 0 -15 2 -2 10 20
13 33 13 25 0z m-2535 -92 c0 -5 -4 -8 -10 -8 -5 0 -10 10 -10 23 0 18 2 19
10 7 5 -8 10 -18 10 -22z m1573 -75 c-7 -2 -19 -2 -25 0 -7 3 -2 5 12 5 14 0
19 -2 13 -5z m2182 -143 c3 -5 1 -10 -4 -10 -6 0 -11 5 -11 10 0 6 2 10 4 10
3 0 8 -4 11 -10z m-3640 -200 c3 -5 1 -10 -4 -10 -6 0 -11 5 -11 10 0 6 2 10
4 10 3 0 8 -4 11 -10z m905 -30 c0 -5 -4 -10 -9 -10 -6 0 -13 5 -16 10 -3 6 1
10 9 10 9 0 16 -4 16 -10z m1860 -24 c0 -3 -4 -8 -10 -11 -5 -3 -10 -1 -10 4
0 6 5 11 10 11 6 0 10 -2 10 -4z m-2773 -72 c-3 -3 -12 -4 -19 -1 -8 3 -5 6 6
6 11 1 17 -2 13 -5z m2638 -14 c3 -5 1 -10 -4 -10 -6 0 -11 5 -11 10 0 6 2 10
4 10 3 0 8 -4 11 -10z m-2639 -16 c-3 -9 -6 -18 -6 -20 0 -3 -4 -3 -10 1 -11
7 -2 35 12 35 6 0 7 -7 4 -16z m174 -294 c0 -13 -12 -19 -26 -13 -21 8 -17 19
6 19 11 0 20 -3 20 -6z m-13 -72 c-3 -8 -6 -5 -6 6 -1 11 2 17 5 13 3 -3 4
-12 1 -19z m-352 2 c3 -5 1 -10 -4 -10 -6 0 -11 5 -11 10 0 6 2 10 4 10 3 0 8
-4 11 -10z m1342 -142 c-3 -8 -6 -5 -6 6 -1 11 2 17 5 13 3 -3 4 -12 1 -19z
m2063 -230 c0 -24 -5 -50 -10 -58 -9 -13 -12 -13 -21 3 -19 32 -29 18 -30 -40
0 -32 -3 -51 -6 -43 -3 8 -10 18 -15 21 -4 3 -2 25 7 48 8 24 15 59 15 77 0
31 3 34 30 34 29 0 30 -2 30 -42z m-260 -42 c0 -3 -4 -8 -10 -11 -5 -3 -10 -1
-10 4 0 6 5 11 10 11 6 0 10 -2 10 -4z m60 0 c0 -3 -4 -8 -10 -11 -5 -3 -10
-1 -10 4 0 6 5 11 10 11 6 0 10 -2 10 -4z m72 -8 c-9 -9 -15 -9 -24 0 -9 9 -7
12 12 12 19 0 21 -3 12 -12z m-3564 -111 c2 -26 -1 -37 -10 -37 -33 0 -50 44
-26 68 20 20 33 8 36 -31z m3709 21 c-3 -8 -6 -5 -6 6 -1 11 2 17 5 13 3 -3 4
-12 1 -19z m-3627 -38 c0 -5 -4 -10 -10 -10 -5 0 -10 5 -10 10 0 6 5 10 10 10
6 0 10 -4 10 -10z m-10 -48 c0 -5 -9 -17 -20 -27 -16 -14 -20 -15 -20 -4 0 16
19 39 32 39 4 0 8 -4 8 -8z m3407 -194 c-3 -8 -6 -5 -6 6 -1 11 2 17 5 13 3
-3 4 -12 1 -19z m-3551 -45 c4 -15 3 -28 -2 -30 -60 -20 -107 -93 -60 -93 46
0 176 34 176 46 0 16 7 20 48 29 l33 7 -3 -92 c-1 -50 -5 -96 -9 -101 -3 -5
-22 -12 -42 -16 -30 -4 -37 -3 -37 11 0 20 4 20 -104 0 -68 -13 -90 -21 -93
-34 -4 -16 -68 -38 -79 -27 -2 2 1 48 6 103 6 54 13 117 15 138 2 21 8 42 12
47 6 6 93 32 125 38 4 0 11 -11 14 -26z m3944 -13 c0 -5 -4 -10 -10 -10 -5 0
-10 5 -10 10 0 6 5 10 10 10 6 0 10 -4 10 -10z m-385 -9 c3 -5 1 -12 -5 -16
-5 -3 -10 1 -10 9 0 18 6 21 15 7z m365 -21 c0 -5 -9 -10 -20 -10 -11 0 -20 5
-20 10 0 6 9 10 20 10 11 0 20 -4 20 -10z m-240 -50 c0 -5 -9 -10 -20 -10 -11
0 -20 5 -20 10 0 6 9 10 20 10 11 0 20 -4 20 -10z m176 -37 c-11 -11 -17 4 -9
23 7 18 8 18 11 1 2 -10 1 -21 -2 -24z m-366 6 c0 -6 -4 -7 -10 -4 -5 3 -10
11 -10 16 0 6 5 7 10 4 6 -3 10 -11 10 -16z m290 11 c0 -5 -2 -10 -4 -10 -3 0
-8 5 -11 10 -3 6 -1 10 4 10 6 0 11 -4 11 -10z m33 -107 c-7 -2 -19 -2 -25 0
-7 3 -2 5 12 5 14 0 19 -2 13 -5z m295 -89 c-7 -15 -14 -21 -16 -15 -5 16 5
41 17 41 7 0 6 -10 -1 -26z m-3997 -55 c39 -27 69 -88 69 -138 0 -67 -22 -141
-52 -173 -15 -17 -28 -34 -28 -38 0 -15 -74 -42 -130 -47 -69 -7 -118 8 -154
46 -24 25 -28 38 -28 87 -1 100 21 161 76 216 67 67 187 90 247 47z m4025 -6
c-10 -10 -19 5 -10 18 6 11 8 11 12 0 2 -7 1 -15 -2 -18z m-660 -100 c-7 -7
-46 16 -46 28 0 5 11 2 25 -7 14 -9 24 -19 21 -21z m182 -11 c3 -9 -3 -13 -19
-10 -12 1 -24 9 -27 16 -3 9 3 13 19 10 12 -1 24 -9 27 -16z m389 -44 c-3 -8
-6 -5 -6 6 -1 11 2 17 5 13 3 -3 4 -12 1 -19z m-3992 -307 c77 -35 106 -96 99
-207 -8 -132 -105 -224 -236 -224 -66 0 -114 24 -146 73 -22 33 -26 51 -26
106 0 66 16 131 37 154 7 6 20 23 28 37 22 35 115 79 164 79 22 0 58 -8 80
-18z m2975 -82 c0 -14 -31 5 -57 35 -34 39 -28 41 17 6 22 -17 40 -36 40 -41z
m35 -20 c11 -17 -1 -21 -15 -4 -8 9 -8 15 -2 15 6 0 14 -5 17 -11z m448 -184
c20 -14 37 -31 37 -37 0 -6 -10 -2 -22 9 -13 11 -34 27 -48 36 -13 10 -20 17
-15 17 6 0 27 -11 48 -25z m-3386 -289 c-2 -57 -7 -109 -11 -115 -4 -6 -25
-11 -47 -11 -31 0 -39 4 -39 18 0 15 -6 18 -30 14 -16 -2 -30 -5 -30 -6 -1 0
-3 -27 -7 -58 l-5 -58 31 0 c24 0 31 4 31 20 0 21 32 34 71 28 23 -3 24 -7 22
-63 -2 -33 -6 -88 -9 -123 l-6 -63 -41 3 c-35 2 -43 7 -45 26 -3 22 -5 22 -95
17 -130 -9 -137 -11 -137 -41 0 -23 -3 -25 -42 -22 -41 3 -43 5 -49 41 -3 21
-3 40 1 42 4 2 8 37 9 77 2 79 8 88 58 88 22 0 36 -6 43 -20 12 -22 58 -28 65
-7 9 22 10 102 3 105 -27 8 -56 0 -61 -18 -4 -17 -14 -20 -57 -20 -36 0 -49 3
-44 11 4 7 8 39 10 73 4 75 11 122 19 136 3 5 24 10 46 10 32 0 39 -3 39 -20
0 -18 6 -20 68 -19 106 0 146 10 150 37 3 19 9 22 49 22 l45 0 -5 -104z m-947
3 c0 -5 -4 -9 -10 -9 -5 0 -10 7 -10 16 0 8 5 12 10 9 6 -3 10 -10 10 -16z
m916 -511 c1 -34 -2 -48 -11 -48 -23 0 -28 -20 -11 -39 11 -12 16 -35 15 -72
-2 -87 -6 -98 -69 -178 -3 -3 -24 -16 -46 -28 -31 -17 -60 -23 -115 -25 -112
-3 -167 33 -193 126 -19 68 -10 165 24 254 11 31 14 32 66 32 30 0 54 -4 54
-9 0 -5 -7 -25 -15 -45 -9 -21 -15 -61 -14 -96 2 -57 3 -59 40 -76 48 -21 99
-14 145 21 29 22 34 32 34 65 0 36 -4 42 -37 57 -33 16 -36 22 -37 58 -1 37 1
40 29 45 17 3 55 6 85 5 l55 0 1 -47z m-276 -464 c44 -18 66 -51 80 -124 5
-25 12 -56 14 -69 12 -55 41 -52 52 5 5 27 2 42 -14 63 -13 18 -20 41 -19 66
2 32 6 40 27 45 14 4 42 5 63 2 36 -4 37 -6 36 -41 -2 -20 -6 -41 -11 -47 -5
-7 -4 -31 1 -55 17 -80 -17 -175 -74 -205 -15 -8 -48 -14 -73 -14 -39 0 -50 5
-82 39 -29 30 -40 52 -50 102 -16 80 -27 95 -49 75 -23 -21 -26 -82 -6 -103
11 -11 15 -30 13 -61 -3 -45 -4 -46 -43 -55 -22 -4 -51 -5 -64 -2 -22 6 -23
10 -17 52 3 25 11 52 18 60 8 10 8 20 -2 38 -20 37 -8 115 26 166 23 34 40 48
79 61 28 9 51 17 52 18 2 0 21 -7 43 -16z m1530 -569 c21 -25 1 -31 -22 -7
-18 18 -19 22 -6 22 8 0 21 -7 28 -15z m-1337 -60 c-1 -33 -5 -93 -8 -133 -6
-63 -9 -73 -28 -77 -37 -10 -72 0 -72 20 0 20 -30 34 -57 27 -20 -5 -31 -49
-26 -107 3 -38 4 -40 38 -40 28 0 36 4 38 21 3 23 38 36 74 26 19 -5 19 -11
13 -126 -4 -66 -12 -127 -18 -134 -6 -8 -25 -12 -46 -10 -28 2 -36 8 -41 28
-6 25 -7 25 -116 25 -134 1 -144 -1 -144 -30 0 -26 -17 -35 -67 -35 l-35 0 6
58 c4 31 8 86 11 120 5 71 14 87 52 95 36 7 53 -1 53 -25 0 -16 6 -19 43 -16
l42 3 7 59 c9 68 0 86 -43 86 -21 0 -31 -7 -41 -27 -11 -24 -20 -28 -53 -28
l-40 0 -1 45 c0 42 21 209 28 215 4 4 39 7 67 6 16 -1 21 -6 18 -15 -12 -30
18 -36 137 -30 103 6 116 9 116 25 0 24 28 39 65 36 30 -2 30 -2 28 -62z
m3397 14 c0 -11 -4 -18 -10 -14 -5 3 -7 12 -3 20 7 21 13 19 13 -6z m-26 -54
c-4 -8 -8 -15 -10 -15 -2 0 -4 7 -4 15 0 8 4 15 10 15 5 0 7 -7 4 -15z m18
-42 c-12 -2 -27 -13 -32 -24 -6 -10 -16 -19 -22 -19 -6 0 -4 8 5 18 10 10 15
21 12 23 -2 3 10 5 28 6 20 0 24 -1 9 -4z m-17 -353 c3 -5 1 -10 -4 -10 -6 0
-11 5 -11 10 0 6 2 10 4 10 3 0 8 -4 11 -10z"/>
<path d="M1988 3543 c-42 -17 -67 -65 -47 -89 16 -20 116 -17 158 4 43 21 56
42 47 75 -6 25 -10 27 -64 26 -31 -1 -74 -8 -94 -16z"/>
<path d="M1955 3061 c-52 -23 -67 -43 -59 -75 4 -19 14 -27 40 -32 43 -8 134
3 154 19 24 20 40 55 33 72 -14 37 -103 46 -168 16z"/>
<path d="M2547 6732 c-9 -13 12 -72 25 -72 16 0 20 24 6 34 -9 6 -17 20 -20
31 -2 15 -6 17 -11 7z"/>
<path d="M3185 6710 c-17 -6 -17 -7 6 -13 33 -9 49 -9 49 2 0 12 -32 19 -55
11z"/>
<path d="M3120 6701 c0 -5 9 -7 20 -4 11 3 20 7 20 9 0 2 -9 4 -20 4 -11 0
-20 -4 -20 -9z"/>
<path d="M3265 6630 c3 -5 8 -10 11 -10 2 0 4 5 4 10 0 6 -5 10 -11 10 -5 0
-7 -4 -4 -10z"/>
<path d="M2472 6340 c0 -14 2 -19 5 -12 2 6 2 18 0 25 -3 6 -5 1 -5 -13z"/>
<path d="M4040 6351 c0 -6 5 -13 10 -16 6 -3 10 1 10 9 0 9 -4 16 -10 16 -5 0
-10 -4 -10 -9z"/>
<path d="M4110 6330 c0 -5 5 -10 11 -10 5 0 7 5 4 10 -3 6 -8 10 -11 10 -2 0
-4 -4 -4 -10z"/>
<path d="M6350 6170 c-12 -8 -10 -10 8 -10 13 0 20 4 17 10 -7 12 -6 12 -25 0z"/>
<path d="M2417 6070 c19 -22 29 -19 20 5 -4 8 -13 15 -22 15 -13 0 -12 -3 2
-20z"/>
<path d="M5440 5645 c0 -9 5 -15 11 -13 6 2 11 8 11 13 0 5 -5 11 -11 13 -6 2
-11 -4 -11 -13z"/>
<path d="M4190 5610 c0 -5 5 -10 10 -10 6 0 10 5 10 10 0 6 -4 10 -10 10 -5 0
-10 -4 -10 -10z"/>
<path d="M5338 5603 c7 -3 16 -2 19 1 4 3 -2 6 -13 5 -11 0 -14 -3 -6 -6z"/>
<path d="M4640 5569 c0 -5 5 -7 10 -4 6 3 10 8 10 11 0 2 -4 4 -10 4 -5 0 -10
-5 -10 -11z"/>
<path d="M4800 5556 c0 -9 30 -14 35 -6 4 6 -3 10 -14 10 -12 0 -21 -2 -21 -4z"/>
<path d="M4860 5550 c0 -5 5 -10 10 -10 6 0 10 5 10 10 0 6 -4 10 -10 10 -5 0
-10 -4 -10 -10z"/>
<path d="M5067 5553 c-4 -3 -7 -11 -7 -17 0 -6 5 -5 12 2 6 6 9 14 7 17 -3 3
-9 2 -12 -2z"/>
<path d="M3590 5536 c0 -8 -8 -17 -17 -19 -14 -4 -12 -5 5 -6 16 -1 22 5 22
19 0 11 -2 20 -5 20 -3 0 -5 -6 -5 -14z"/>
<path d="M4226 5541 c-4 -7 -5 -15 -2 -18 9 -9 19 4 14 18 -4 11 -6 11 -12 0z"/>
<path d="M4950 5519 c-12 -8 -10 -9 8 -4 16 5 22 2 22 -9 0 -9 5 -16 11 -16
16 0 6 34 -11 37 -8 2 -22 -2 -30 -8z"/>
<path d="M4311 5504 c0 -11 3 -14 6 -6 3 7 2 16 -1 19 -3 4 -6 -2 -5 -13z"/>
<path d="M5036 5505 c8 -19 15 -19 40 0 18 14 17 14 -13 15 -25 0 -31 -4 -27
-15z"/>
<path d="M2551 5454 c0 -11 3 -14 6 -6 3 7 2 16 -1 19 -3 4 -6 -2 -5 -13z"/>
<path d="M6160 5447 c0 -17 32 -47 49 -47 8 0 11 8 8 20 -4 14 0 20 11 21 10
1 7 4 -8 9 -39 12 -60 11 -60 -3z"/>
<path d="M4170 5439 c11 -8 12 -12 3 -16 -30 -12 -2 -63 34 -62 16 0 15 2 -4
16 -30 21 -29 27 10 52 l32 21 -45 0 c-34 0 -41 -3 -30 -11z"/>
<path d="M6126 5424 c-9 -23 -7 -44 3 -44 5 0 11 14 13 30 5 32 -6 41 -16 14z"/>
<path d="M6240 5400 c0 -19 3 -21 12 -12 9 9 9 15 0 24 -9 9 -12 7 -12 -12z"/>
<path d="M6480 5405 c0 -9 6 -12 15 -9 8 4 12 10 9 15 -8 14 -24 10 -24 -6z"/>
<path d="M6160 5366 c0 -9 5 -16 10 -16 6 0 10 4 10 9 0 6 -4 13 -10 16 -5 3
-10 -1 -10 -9z"/>
<path d="M3790 5240 c0 -5 5 -10 10 -10 6 0 10 5 10 10 0 6 -4 10 -10 10 -5 0
-10 -4 -10 -10z"/>
<path d="M2371 5204 c0 -11 3 -14 6 -6 3 7 2 16 -1 19 -3 4 -6 -2 -5 -13z"/>
<path d="M2258 5144 c-10 -19 -18 -52 -19 -72 0 -30 -2 -33 -9 -17 -8 18 -9
17 -9 -7 -1 -14 -5 -28 -10 -30 -13 -4 -18 -110 -6 -114 6 -2 20 5 33 14 20
15 26 35 38 118 8 54 19 100 23 102 13 4 1 42 -13 42 -6 0 -19 -16 -28 -36z"/>
<path d="M2331 5138 c-4 -12 -7 -37 -5 -55 1 -18 -1 -33 -6 -33 -4 0 -6 -8 -3
-19 3 -10 0 -22 -6 -25 -6 -4 -11 -22 -10 -39 0 -18 3 -26 6 -18 5 11 7 11 14
0 11 -19 29 0 33 35 1 14 6 29 9 33 4 3 7 19 7 34 0 15 4 38 9 52 10 27 4 40
-22 50 -13 5 -20 0 -26 -15z"/>
<path d="M2177 5113 c-4 -3 -7 -14 -7 -23 0 -9 -5 -21 -12 -28 -6 -6 -13 -22
-15 -34 -2 -12 -9 -26 -16 -30 -12 -7 -14 -94 -3 -106 14 -13 26 18 46 117 20
99 21 119 7 104z"/>
<path d="M6258 5113 c7 -3 16 -2 19 1 4 3 -2 6 -13 5 -11 0 -14 -3 -6 -6z"/>
<path d="M3863 4920 c0 -25 2 -35 4 -22 2 12 2 32 0 45 -2 12 -4 2 -4 -23z"/>
<path d="M2030 4869 c0 -5 5 -7 10 -4 6 3 10 8 10 11 0 2 -4 4 -10 4 -5 0 -10
-5 -10 -11z"/>
<path d="M2114 4865 c-11 -27 2 -37 14 -11 7 16 8 26 1 26 -5 0 -12 -7 -15
-15z"/>
<path d="M2016 4815 c-3 -8 -1 -15 4 -15 6 0 10 7 10 15 0 8 -2 15 -4 15 -2 0
-6 -7 -10 -15z"/>
<path d="M3998 4723 c7 -3 16 -2 19 1 4 3 -2 6 -13 5 -11 0 -14 -3 -6 -6z"/>
<path d="M6001 4674 c0 -11 3 -14 6 -6 3 7 2 16 -1 19 -3 4 -6 -2 -5 -13z"/>
<path d="M5834 4650 c1 -8 10 -16 21 -17 15 -1 15 0 3 3 -9 3 -19 11 -21 17
-2 7 -3 5 -3 -3z"/>
<path d="M6021 4624 c0 -11 3 -14 6 -6 3 7 2 16 -1 19 -3 4 -6 -2 -5 -13z"/>
<path d="M5890 4600 c0 -5 7 -10 15 -10 8 0 15 5 15 10 0 6 -7 10 -15 10 -8 0
-15 -4 -15 -10z"/>
<path d="M5601 4574 c0 -11 3 -14 6 -6 3 7 2 16 -1 19 -3 4 -6 -2 -5 -13z"/>
<path d="M6050 4570 c0 -5 5 -10 11 -10 5 0 7 5 4 10 -3 6 -8 10 -11 10 -2 0
-4 -4 -4 -10z"/>
<path d="M5470 4495 c0 -8 5 -15 10 -15 6 0 10 7 10 15 0 8 -4 15 -10 15 -5 0
-10 -7 -10 -15z"/>
<path d="M5300 4470 c0 -5 5 -10 10 -10 6 0 10 5 10 10 0 6 -4 10 -10 10 -5 0
-10 -4 -10 -10z"/>
<path d="M6120 4300 c0 -11 7 -20 15 -20 13 0 14 4 5 20 -6 11 -13 20 -15 20
-3 0 -5 -9 -5 -20z"/>
<path d="M6200 4210 c0 -5 5 -10 11 -10 5 0 7 5 4 10 -3 6 -8 10 -11 10 -2 0
-4 -4 -4 -10z"/>
<path d="M5897 4168 c-17 -13 -14 -58 5 -58 5 0 4 9 -2 21 -13 24 -4 41 10 19
6 -8 10 -12 10 -8 0 3 3 13 6 22 7 19 -6 21 -29 4z"/>
<path d="M6200 4160 c0 -11 5 -20 10 -20 6 0 10 9 10 20 0 11 -4 20 -10 20 -5
0 -10 -9 -10 -20z"/>
<path d="M5805 4124 c-6 -32 -1 -54 9 -43 9 11 16 79 8 79 -6 0 -13 -16 -17
-36z"/>
<path d="M6205 4110 c4 -6 11 -8 16 -5 14 9 11 15 -7 15 -8 0 -12 -5 -9 -10z"/>
<path d="M6030 4061 c0 -12 5 -21 10 -21 6 0 10 6 10 14 0 8 -4 18 -10 21 -5
3 -10 -3 -10 -14z"/>
<path d="M6120 3319 c0 -5 5 -7 10 -4 6 3 10 8 10 11 0 2 -4 4 -10 4 -5 0 -10
-5 -10 -11z"/>
<path d="M1108 2420 c-3 -16 -1 -30 4 -30 4 0 8 14 8 30 0 17 -2 30 -4 30 -2
0 -6 -13 -8 -30z"/>
<path d="M5475 2430 c-8 -13 15 -13 35 0 12 8 11 10 -7 10 -12 0 -25 -4 -28
-10z"/>
<path d="M1144 2369 c-10 -17 13 -36 27 -22 12 12 4 33 -11 33 -5 0 -12 -5
-16 -11z"/>
<path d="M1085 2339 c-11 -17 1 -21 15 -4 8 9 8 15 2 15 -6 0 -14 -5 -17 -11z"/>
<path d="M1112 2268 c-6 -21 -5 -39 2 -51 10 -16 11 -16 17 5 3 13 2 25 -3 26
-13 6 -9 24 10 38 16 13 16 13 0 14 -11 0 -20 -12 -26 -32z"/>
<path d="M5360 2234 c0 -8 5 -12 10 -9 6 4 8 11 5 16 -9 14 -15 11 -15 -7z"/>
<path d="M1105 2170 c-3 -5 -1 -10 4 -10 6 0 11 5 11 10 0 6 -2 10 -4 10 -3 0
-8 -4 -11 -10z"/>
<path d="M5215 2110 c11 -5 31 -9 45 -9 23 0 23 1 5 9 -11 5 -31 9 -45 9 -23
0 -23 -1 -5 -9z"/>
<path d="M1027 2014 c-4 -4 -7 -17 -7 -28 1 -19 1 -20 11 -3 11 19 8 43 -4 31z"/>
<path d="M1040 1953 c0 -22 -2 -25 -10 -13 -8 13 -10 12 -10 -2 0 -10 7 -18
15 -18 10 0 15 10 15 30 0 17 -2 30 -5 30 -3 0 -5 -12 -5 -27z"/>
<path d="M957 1700 c-3 -13 0 -20 9 -20 8 0 14 9 14 20 0 11 -4 20 -9 20 -5 0
-11 -9 -14 -20z"/>
<path d="M911 1454 c0 -11 3 -14 6 -6 3 7 2 16 -1 19 -3 4 -6 -2 -5 -13z"/>
<path d="M873 1230 c0 -22 4 -26 19 -22 10 2 18 7 18 11 0 4 -8 14 -18 22 -17
15 -19 14 -19 -11z"/>
<path d="M890 1180 c0 -5 7 -10 15 -10 8 0 15 5 15 10 0 6 -7 10 -15 10 -8 0
-15 -4 -15 -10z"/>
<path d="M876 1133 c-6 -14 -5 -15 5 -6 7 7 10 15 7 18 -3 3 -9 -2 -12 -12z"/>
<path d="M825 1019 c-10 -15 3 -25 16 -12 7 7 7 13 1 17 -6 3 -14 1 -17 -5z"/>
<path d="M825 970 c-3 -5 1 -10 10 -10 9 0 13 5 10 10 -3 6 -8 10 -10 10 -2 0
-7 -4 -10 -10z"/>
<path d="M5526 938 c-9 -34 -7 -58 3 -58 5 0 12 8 15 18 2 9 7 27 11 40 4 15
2 22 -8 22 -8 0 -17 -10 -21 -22z"/>
<path d="M826 825 c-7 -19 3 -47 15 -39 5 3 9 14 9 24 0 24 -16 34 -24 15z"/>
<path d="M791 674 c0 -11 3 -14 6 -6 3 7 2 16 -1 19 -3 4 -6 -2 -5 -13z"/>
<path d="M796 624 c-6 -15 -4 -15 11 -3 10 7 20 15 22 16 2 2 -3 3 -11 3 -9 0
-19 -7 -22 -16z"/>
<path d="M755 559 c-4 -6 -5 -13 -2 -16 7 -7 27 6 27 18 0 12 -17 12 -25 -2z"/>
<path d="M5486 545 c4 -8 7 -15 9 -15 2 0 5 7 9 15 3 9 0 15 -9 15 -9 0 -12
-6 -9 -15z"/>
<path d="M787 504 c-13 -13 -7 -24 14 -24 11 0 19 5 17 12 -5 14 -22 21 -31
12z"/>
<path d="M749 465 c-1 0 -3 -17 -5 -38 -1 -21 -8 -44 -13 -51 -8 -9 -6 -18 8
-30 18 -17 19 -16 31 19 8 24 17 35 25 31 9 -3 12 0 8 10 -3 7 -14 14 -24 14
-10 0 -19 5 -19 11 0 6 9 9 20 6 14 -4 20 0 20 11 0 11 -8 17 -25 17 -14 0
-25 0 -26 0z"/>
<path d="M743 280 c-5 -22 -6 -40 -2 -40 5 0 9 -4 9 -10 0 -5 -7 -10 -15 -10
-16 0 -21 -35 -7 -44 5 -3 5 -29 2 -58 -8 -58 -6 -68 15 -68 10 0 12 12 8 55
-4 40 -2 55 7 55 8 0 10 9 5 28 -5 22 -4 25 6 15 17 -17 29 -16 29 1 0 8 -7
17 -16 20 -8 3 -12 10 -9 16 3 6 -1 7 -9 4 -11 -4 -16 0 -16 15 0 12 5 21 10
21 6 0 10 9 10 20 0 34 -15 22 -27 -20z"/>
<path d="M9208 183 c7 -3 16 -2 19 1 4 3 -2 6 -13 5 -11 0 -14 -3 -6 -6z"/>
<path d="M8930 170 c0 -5 7 -10 15 -10 8 0 15 5 15 10 0 6 -7 10 -15 10 -8 0
-15 -4 -15 -10z"/>
<path d="M8720 155 c0 -8 7 -15 15 -15 8 0 15 4 15 9 0 5 -7 11 -15 15 -9 3
-15 0 -15 -9z"/>
<path d="M711 144 c0 -11 3 -14 6 -6 3 7 2 16 -1 19 -3 4 -6 -2 -5 -13z"/>
<path d="M8641 138 l-1 -28 -121 0 c-121 0 -121 0 -115 -22 3 -13 6 -38 6 -55
0 -30 3 -33 30 -33 28 0 30 2 30 40 0 22 5 40 10 40 6 0 10 -18 10 -40 0 -38
2 -40 29 -40 28 0 30 3 34 43 l4 42 1 -42 2 -43 119 0 c98 0 120 3 123 15 3
13 6 13 31 0 21 -11 69 -14 213 -14 l184 1 -2 74 c-1 60 -4 74 -16 69 -7 -3
-31 -5 -53 -5 -28 0 -39 -4 -39 -15 0 -11 -11 -15 -40 -15 -29 0 -40 4 -40 15
0 11 -11 15 -40 15 -35 0 -43 -4 -58 -30 -21 -36 -26 -37 -40 -5 -14 29 -18
30 -66 10 -34 -15 -36 -14 -36 5 0 13 -7 20 -17 20 -22 -1 -63 -34 -63 -51 0
-8 -7 -3 -16 9 -8 12 -22 22 -30 22 -8 0 -19 10 -24 23 -8 21 -9 21 -9 -5z
m29 -78 c0 -11 -7 -20 -15 -20 -8 0 -15 9 -15 20 0 11 7 20 15 20 8 0 15 -9
15 -20z m470 16 c0 -3 -4 -8 -10 -11 -5 -3 -10 -1 -10 4 0 6 5 11 10 11 6 0
10 -2 10 -4z m-70 -46 c0 -5 -7 -10 -15 -10 -8 0 -15 5 -15 10 0 6 7 10 15 10
8 0 15 -4 15 -10z"/>
<path d="M8341 91 c-11 -7 -11 -9 0 -14 10 -4 9 -6 -3 -6 -29 -1 -24 -57 5
-65 37 -10 57 -7 57 9 0 8 -7 15 -15 15 -8 0 -15 5 -15 10 0 6 7 10 15 10 22
0 19 27 -4 40 -23 12 -22 12 -40 1z"/>
</g>
</svg>
